<svg xmlns="http://www.w3.org/2000/svg" width="300" height="300" xmlns:v="https://vecta.io/nano">
    <path
        d="M209.281 89.715c13.261 10.838 21.708 26.776 24.219 43.645 1.706 18.171-3.302 34.672-14.445 49.172-4.184 4.922-8.68 8.902-14.055 12.469l-2.27 1.559c-6.553 4.245-13.255 6.354-20.73 8.441l-2.637 1.086c-5.117 1.391-10.146 1.295-15.426 1.289l-3.386.006c-7.311-.09-13.309-.787-20.099-3.604-3.095-.981-4.391-.885-7.453.223-2.538 1.597-4.885 3.41-7.25 5.25-5.39 4.085-10.704 7.674-16.75 10.75l-3-2c-1.899-10.658 1.013-24.758 4-35l-1.797-.687c-2.821-1.68-3.824-3.482-5.453-6.312l-1.578-2.687C100 171 100 171 100 169l-2.998-.06-10.992-.257-4.761-.104-6.836-.164-2.156-.035c-5.03-.151-5.03-.151-7.258-2.379-.571-7.2-.571-7.2 1.137-9.594 2.666-2.013 4.712-1.824 8.027-1.883l3.648-.094 3.813-.055 7.477-.164 3.354-.053c2.479.128 2.479.128 3.544-1.158.041-1.666.043-3.334 0-5-2.293-1.147-3.695-1.152-6.246-1.211l-2.537-.086-5.297-.133-2.541-.094-2.326-.06c-2.59-.525-3.489-1.309-5.053-3.417-.437-3.5-.437-3.5 0-7 2.447-2.708 4.01-3.001 7.667-3.432l4.38-.079 2.337-.054 7.366-.121 5.004-.104L111 132v-7l-2.415-.028-10.835-.222-3.801-.043-3.652-.098-3.364-.063c-3.56-.663-4.757-1.698-6.933-4.546-.562-3-.562-3 0-6 3.339-3.498 5.903-4.439 10.723-4.609l2.027-.016c2.441-.046 4.813-.167 7.25-.375l1-2h2l.688-2.187c1.577-3.378 3.622-5.25 6.313-7.812l1.813-2.437c24.386-28.567 69.837-25.619 97.469-4.848z"
        fill="#3b82b6" />
    <path
        d="M183.613 107.141c8.654 6.742 14.633 14.951 16.387 25.859.946 12.422-.796 22.89-8.828 32.672L190 167c1.344 3.009 2.862 4.998 5.188 7.313 2.566 2.903 2.808 3.383 2.875 7.5C197 185 197 185 194 187c-2.25.563-2.25.563-5 0-3.594-2.903-6.443-6.164-9-10l-2.168.656c-12.438 3.476-23.988 3.87-35.648-2.098-10.02-5.876-15.775-13.491-19.184-24.559-2.734-11.192-1.575-22.255 4.285-32.176 6.605-9.475 14.982-15.85 26.289-18.406 10.525-1.813 21.155.943 30.039 6.723z"
        fill="#f7f9fa" />
    <path
        d="M176 119c5.217 4.423 9.647 9.817 10.238 16.82.166 7.369-.523 12.761-4.238 19.18-4 0-4 0-5.75-1.375C175 152 175 152 175 150c-5.282-1.2-5.282-1.2-10 1-.668 3.372-.668 3.372 0 7 2.396 2.813 2.396 2.813 5 5v2c-5.123 2.562-12.545 1.745-17.871.129-6.99-3.245-11.829-7.765-15.004-14.816-2.336-7.16-2.239-15.592.836-22.504 3.705-6.448 8.714-11.207 15.961-13.387 8.467-1.719 14.878-.094 22.078 4.578z"
        fill="#3a82b7" />
    <path
        d="M158.941 122.902l3.621.035 3.629.027L169 123l-6 11 6 1c-1.35 3.037-2.839 5.037-5.25 7.313-3.496 3.386-6.628 6.956-9.75 10.688l-1-2c.996-2.602.996-2.602 2.438-5.625l1.434-3.039L158 140h-7l1.938-7.937.553-2.287c1.664-6.747 1.664-6.747 5.451-6.873z"
        fill="#f0f5f7" />
    <path
        d="M92.313 109.75l3.801.109L99 110v2l-2.957.184-3.855.254-3.832.246c-3.347.188-3.347.188-6.355 1.316v6h-2c-.312-2.75-.312-2.75 0-6 3.893-4.129 6.767-4.457 12.313-4.25z"
        fill="#89b1cd" />
    <path d="M118 89l1 2c-4.431 5.785-4.431 5.785-7.312 6.875L110 98c2.315-3.721 4.286-6.612 8-9z"
        fill="#599dc8" />
    <path
        d="M153 76l-3 .813c-4.096 1.164-8.028 2.655-12 4.188v-3l6.375-1.562 3.586-.879C151 75 151 75 153 76z"
        fill="#65a9cd" />
</svg>