<svg xmlns="http://www.w3.org/2000/svg" width="610" height="445" xmlns:v="https://vecta.io/nano">
    <path
        d="M312.5 19.688l2.748-.029c11.034-.1 21.058.382 31.752 3.342l3.164.854 9.086 2.646 3.023.895 5.905 1.764 5.53 1.605c5.153 1.47 9.678 3.23 14.417 5.736 3.688 1.915 7.328 3.79 11.25 5.188C407.479 44.622 414.036 48.976 421 54l3.363 2.324c6.84 4.742 13.128 9.677 19.195 15.391 2.071 1.938 4.187 3.739 6.379 5.535C458.398 84.594 465.46 93.951 472 103l4.625 6.25 2.227 3.016c2.007 2.715 2.007 2.715 4.238 4.617 2.604 2.886 3.626 6.125 4.848 9.742 1.618 4.556 3.226 8.971 5.5 13.25C502.76 157.706 506.712 176.182 509 196l.301 2.53c.826 7.799.885 15.595.884 23.429l.039 6.818c.032 8.439-.457 16.552-1.757 24.894-.479 3.409-.695 6.765-.843 10.204-.341 4.907-1.321 8.528-3.52 12.902-3.809 7.658-5.953 16.009-8.078 24.254-1.055 3.048-1.841 3.783-4.027 5.969-1.001 1.776-1.001 1.776-1.797 3.73l-.956 2.17-.997 2.287c-2.199 4.922-4.105 9.165-8.062 12.938-4.358 4.318-4.721 9.865-5.582 15.68C474 347 474 347 472 349c-2.323.4-4.657.74-7 1l-.437 3.125c-1.291 4.559-4.245 6.002-8.141 8.359-4.832 3.024-8.862 7.059-13.016 10.938-5.847 5.42-11.773 10.166-18.406 14.578-6.679 4.429-6.679 4.429-12.625 9.75-2.626 2.488-4.728 3.385-8.117 4.477-4.479 1.534-8.775 3.552-13.09 5.492-6.507 2.92-12.854 5.67-19.754 7.539-2.866.881-5.541 2.042-8.289 3.242-17.839 7.535-36.838 6.706-55.87 6.74l-9.944.072c-11.525.057-22.132-.403-33.311-3.312l-6.375-1.437c-3.482-.885-6.59-1.922-9.812-3.5-4.278-2.073-8.566-2.922-13.187-3.875-6.589-1.406-11.458-3.444-17.008-7.391-2.833-1.945-5.713-3.426-8.805-4.922-3.993-1.945-7.769-3.984-11.492-6.398-2.56-1.629-5.159-3.18-7.767-4.73L180 383l-2.828-1.703c-3.641-2.291-5.863-3.82-8.234-7.484-2.147-3.116-2.574-3.194-6-4.125-2.828-.853-3.687-1.225-5.121-3.867-.737-2.264-1.347-4.487-1.816-6.82l-2.187-.062c-3.601-1.2-4.387-2.842-6.211-6.051-1.646-2.193-1.646-2.193-5.051-3.578-3.895-2.103-4.931-4.499-6.299-8.605l-.689-2.328-.771-2.352C133 330.462 133 330.462 133 328l-2.875-.687C127 326 127 326 125.688 324c-.617-2.691-.831-5.069-1-7.812-.39-4.64-1.673-7.298-4.289-11.078-4.718-7.117-6.989-14.795-8.723-23.074a55.79 55.79 0 0 0-2.113-7.223c-1.586-4.524-2.638-9.141-3.687-13.812l-.517-2.266-.49-2.234-.434-1.969c-1.224-7.155-1.617-14.274-1.707-21.523l-.038-2.836c-.272-25.196.109-49.1 9.968-72.715 1.74-4.477 2.672-8.968 3.508-13.687 1-3.314 2.622-5.131 4.836-7.77 1.009-1.891 1.966-3.809 2.875-5.75 2.649-5.43 5.645-10.323 9.125-15.25l1.828-2.672c4.798-6.975 4.798-6.975 6.658-8.731 1.62-1.709 2.405-3.172 3.346-5.32l.982-2.131 1.961-4.43c2.521-5.394 2.521-5.394 6.486-7.213L157 84l1-7c7.501-2.924 7.501-2.924 10.875-3.437L171 73c1.067-1.799 1.067-1.799 2-4 6.546-7.602 15.959-13.628 24.688-18.5 2.395-1.312 2.395-1.312 3.477-3.453 2.647-2.951 5.805-3.403 9.523-4.297 6.289-1.656 11.835-3.8 17.563-6.875 5.887-3.141 11.336-5.026 17.934-6.305 2.433-.493 4.574-1.108 6.879-2.008l1.902-.742 4.414-1.828c16.672-6.403 35.545-5.199 53.121-5.305z"
        fill="#fcfcfc" />
    <path
        d="M303.313 127.688l2.975-.049c16.16-.011 29.28 7.24 40.721 18.303 4.471 4.791 7.468 10.028 9.992 16.059l1.109 2.645c3.283 12.369 2.212 27.212-4.109 38.355-8.135 13.996-20.524 21.611-35.77 26.113-4.567 1.099-8.989 1.182-13.668 1.137l-2.408.023c-4.948-.016-9.374-.681-14.18-1.82-4.365-1.002-6.195-.913-10.131 1.41l-3.344 2.449C263.931 240 263.931 240 260 240c-.091-4.357-.059-8.544.5-12.875L261 223l.313-2.594c.453-6.719-.954-10.9-4.937-16.311-4.55-4.013-9.906-3.318-15.688-3.095l-7.051.063-3.134.098C228 201 228 201 226 199c-.25-2.5-.25-2.5 0-5 2.561-2.561 3.666-2.297 7.227-2.414l3.125-.117 3.273-.094 3.297-.117L251 191c.043-2 .041-4 0-6-2.223-2.223-8.035-1.405-11.186-1.518-5.601-.269-5.601-.269-7.814-2.482-.25-2.5-.25-2.5 0-5 2.752-2.752 4.435-2.295 8.285-2.379l3.795-.104 3.982-.08 7.785-.191 3.5-.073c2.574.124 2.574.124 3.652-1.174.167-2.5.167-2.5 0-5-1.61-1.61-3.396-1.184-5.621-1.246l-2.834-.1-5.953-.172-2.838-.104-2.615-.076C241 165 241 165 239 163c-.25-2.5-.25-2.5 0-5 2-2 2-2 5.258-2.195l3.867.07 3.883.055L255 156l.75-2.195c4.846-10.874 16.347-18.431 26.949-22.98 7.101-2.544 13.069-3.161 20.613-3.137z"
        fill="#3b81b6" />
    <path
        d="M318.438 151.359C325.608 155.951 330.78 162.796 333 171c.983 9.887.47 17.448-5 26l-2 4 1.313 1.355c4.565 4.956 4.565 4.956 5.188 8.457C332 213 332 213 330 215c-3.406 0-5.952-.058-8.57-2.41-1.218-1.471-2.332-3.027-3.43-4.59l-3.062 1c-10.304 2.48-20.074 2.161-29.344-3.172-7.058-4.975-11.642-11.369-13.594-19.828-1.302-10.292-.071-18.475 6-27 10.954-12.707 25.727-15.839 40.438-7.641z"
        fill="#f6f8f8" />
    <path
        d="M202.813 255.25c5.526 3.034 9.146 5.625 11.188 11.75.769 7.984.015 14.589-3 22l1.488 1.332C214 292 214 292 214.188 294.688L214 297c-2.25.75-2.25.75-5 1l-1.937-2-2.062-2c-2.77.209-2.77.209-6 1-6.284.696-11.039.403-16.238-3.414-4.416-3.976-6.468-7.187-7.203-13.191-.221-7.223-.228-12.715 4.441-18.395 6.612-6.116 14.185-8.212 22.813-4.75z"
        fill="#3c7db4" />
    <path
        d="M313.656 161.414c3.946 2.67 6.604 5.077 8.344 9.586.906 7.161 1.384 13.886-3 20-2.229-.999-3.781-1.742-5.375-3.625-2.429-2.055-4.559-1.579-7.625-1.375-.465 4.793-.465 4.793 1.5 8.938L309 196l-1 3c-7.264.473-12.104.481-18-4-4.792-4.779-7.287-8.95-7.375-15.75.125-6.416 1.381-11.043 5.801-15.777 7.977-7.112 16.226-7.089 25.23-2.059z"
        fill="#3a81b6" />
    <path
        d="M360 252.875c3 .125 3 .125 4 1.125l.063 6.563-.027 3.629L364 267l3-2c3.391-.546 6.61-.552 10 0 3.063 2.438 3.063 2.438 5 5l1 1c.252 3.639.185 7.291.188 10.938l.037 3.115.006 2.975.012 2.742C383 293 383 293 381 295c-4.556-.556-4.556-.556-6-2-.145-1.475-.227-2.956-.281-4.437l-.113-2.711-.211-5.703-.113-2.711-.092-2.504c.017-1.939.017-1.939-1.189-2.934-3.5-.167-3.5-.167-7 0-1.576 1.576-1.182 3.217-1.246 5.402l-.1 2.697-.172 5.664-.104 2.701-.076 2.488C364 293 364 293 362 295c-4.556-.556-4.556-.556-6-2a228.13 228.13 0 0 1-.133-8.594l-.003-2.612.005-5.478-.006-8.415.004-5.309-.006-2.56c.028-6.988.028-6.988 4.139-7.159z"
        fill="#ee8a4a" />
    <path
        d="M296 252.875c3 .125 3 .125 4 1.125l.098 4.91-.01 2.998-.025 3.154-.014 3.166L300 276h2l.793-1.766C304.81 270.5 307.662 267.6 311 265c2.938-.437 2.938-.437 5 0 .746 2.23.746 2.23 1 5-1.652 2.238-1.652 2.238-3.937 4.313l-2.277 2.113L309 278l1.207 1.609L315 286l1.719 2.125C318 290 318 290 317.688 292.25L317 294l-5 1-5-5.875-1.445-1.684C302 283.227 302 283.227 302 281h-2l.035 2.809.027 3.629.035 3.621C300 294 300 294 299 295c-2.437.188-2.437.188-5 0-2.64-2.64-2.238-4.555-2.252-8.147l.022-2.544.001-2.607.023-5.46.02-8.388.018-5.295.003-2.55c.057-6.962.057-6.962 4.165-7.133z"
        fill="#4384bb" />
    <path
        d="M347.277 254.895C349.188 256 349.188 256 352 258l-1 5c-3 1-3 1-5.25.063-4.071-1.573-7.796-1.605-12-.437-3.1 2.436-4.467 5.455-5.039 9.336-.236 5.603 1.164 9.677 4.977 13.914 5.254 2.556 11.735 1.055 17.313.125l1 5c-5.658 4.488-10.962 4.7-18 4-6.039-1.964-9.828-6.543-13.109-11.766-2.233-5.602-1.988-13.155.02-18.789 5.371-9.153 16.236-13.53 26.367-9.551z"
        fill="#f1904f" />
    <path
        d="M398.875 264.688l3.117-.051c3.427.414 5.253 1.314 8.008 3.363 2.234 3.351 2.238 4.418 2.195 8.324l-.02 3.115-.051 3.248-.027 3.283L412 294l-5 1-1-3-2.562 1.5c-3.899 1.701-6.228 2.036-10.437 1.5-2.875-1.562-2.875-1.562-5-4-.917-3.422-1.328-5.818-.375-9.25 2.489-3.168 4.928-4.52 8.926-5.156 2.483-.253 4.958-.453 7.449-.594l-1-4h-13v-5c3.423-2.282 4.841-2.297 8.875-2.312z"
        fill="#f08a49" />
    <path
        d="M223.563 264.813C226 265 226 265 227 266l.281 4.184.113 2.561.105 2.693.219 5.246.092 2.361c.079 2.033.079 2.033 1.189 3.955h7c1.58-1.58 1.201-3.247 1.281-5.437l.113-2.711.105-2.852.219-5.562.092-2.504C238 266 238 266 239 265c2.5-.125 2.5-.125 5 0 2.417 2.417 1.282 8.507 1.313 11.75l.088 3.039c.064 7.441.064 7.441-2.283 11.332-4.304 3.82-8.376 4.283-13.969 4.125-3.099-.355-4.811-1.183-7.148-3.246-3.375-5.246-3.427-9.724-3.312-15.75l-.01-2.613c.073-8.472.073-8.472 4.885-8.824z"
        fill="#3e80b6" />
    <path
        d="M198 261c3.704 2.027 5.654 3.48 8 7 .266 2.594.266 2.594.25 5.5l.016 2.906C206 279 206 279 204 282l-1.687-1.937c-2.533-2.259-3.996-2.694-7.312-3.062.325 4.822.325 4.822 2.563 8.938L199 287c-1 1-1 1-4.187 1.375-5.039-.496-6.356-1.754-9.812-5.375-1.661-4.76-1.658-10.049-1-15 3.222-6.203 7.292-7.559 14-7z"
        fill="#f4f8f9" />
    <path
        d="M424 256.875c3 .125 3 .125 4 1.125v7l2.938-.062C434 265 434 265 435 266v5h-7l1 16 7 2-1 5c-3.1 1.55-5.579 1.29-9 1-2.753-1.796-4.526-3.053-6-6l-.098-4.133.01-2.441.025-2.551.014-2.574L420 271h-4v-5l4-1-.062-3.437c.079-4.522.079-4.522 4.063-4.687z"
        fill="#f0914f" />
    <path
        d="M279.063 264.688l3.16.012C285 265 285 265 288 267c.188 2.625.188 2.625 0 5l-2.555-.105-3.32-.082-3.305-.105L276 272c-2.167 3.251-2.272 4.292-2.25 8.063l-.016 2.66c.05 2.475.05 2.475 2.266 4.277 3.903.217 7.241.012 11-1 1 1 1 1 1.375 3.375C288 292 288 292 286.063 293.813c-4.141 1.606-7.676 1.884-12.062 1.188-4.519-2.26-6.761-4.523-9-9-.832-5.572-.746-10.481 1.75-15.562 4.02-4.355 6.262-5.847 12.313-5.75z"
        fill="#3f82ba" />
    <path
        d="M327 273l.699 2.047c2.52 7.258 2.52 7.258 8.301 11.953 5.155.416 9.915-.153 15-1l1 5c-5.658 4.488-10.962 4.7-18 4-5.417-1.762-8.715-5.556-12-10-1.106-2.213-1.196-3.547-1.25-6l-.078-2.125L321 275c3-2 3-2 6-2z"
        fill="#ee803f" />
    <path
        d="M253 265l7 1 .125 13.375.051 3.852.02 3.672.032 3.396C260 293 260 293 258 295c-2.562.188-2.562.188-5 0-1.83-1.83-1.13-4.732-1.133-7.187l-.004-3.805.006-1.991-.006-6.024.004-3.805.003-3.52C252 266 252 266 253 265z"
        fill="#4282b5" />
    <path d="M298 165h11l-5 10h5c-3.563 5.092-7.047 9.227-12 13l3-9h-5c.715-4.764 1.795-9.342 3-14z"
        fill="#f1f5f7" />
    <path
        d="M214.727 173.863l2.273.012 2.273-.012c5.6.01 5.6.01 6.727 1.137.188 2.938.188 2.938 0 6-2.863 2.863-4.952 2.3-8.937 2.313l-3.777.051C210 183 210 183 208.043 181.645 207 180 207 180 207.25 177.375c1.364-4.319 3.221-3.504 7.477-3.512z"
        fill="#3f76a8" />
    <path
        d="M398.875 264.688l3.117-.051c3.4.411 5.267 1.344 8.008 3.363l1 2c-1.25 2.625-1.25 2.625-3 5h-3v2l-4-1h3l-1-4h-13v-5c3.423-2.282 4.841-2.297 8.875-2.312z"
        fill="#f09a5b" />
    <path
        d="M318.105 246.492c2.207.008 2.207.008 5.895.508-1.389 5.05-3.232 10.242-7 14-2.952.712-4.928.417-8 0 3.626-13.186 3.626-13.186 9.105-14.508z"
        fill="#f38e4c" />
    <path
        d="M256 252.875c3 .125 3 .125 4 1.125v6c-1 1-1 1-3.937 1.188C253 261 253 261 251 259c.725-5.947.725-5.947 5-6.125z"
        fill="#498cc7" />
    <path
        d="M398.945 281.805L405 282c-.75 4.75-.75 4.75-3 7h-6c-.625-2.375-.625-2.375-1-5 2-2 2-2 3.945-2.195z"
        fill="#fbf6f1" />
    <path
        d="M397.688 264.875l2.449.055L402 265l-2 1v4c-3.62 1.316-6.096 2-10 2-.187-2.375-.187-2.375 0-5 3.204-2.136 4.019-2.231 7.688-2.125z"
        fill="#f08d4a" />
    <path
        d="M359 417v2c-3.823 1.423-6.913 2.24-11 2v-3l4.375-1.062 2.461-.598C357 416 357 416 359 417z"
        fill="#e9e6e9" />
    <path d="M295 175l1 3h5l1 6-5 4 3-9h-5v-4z" fill="#d9e6ed" />
    <path d="M337 421v1h-8v2h-6l-2-2c5.361-1.129 10.553-1.097 16-1z" fill="#e7e7e8" />
    <path d="M264 418l10 2-1 2-9-1v-3z" fill="#e9e9e9" />
    <path d="M314 265l3 1-1 5-2 1v-7z" fill="#5e99c4" />
    <path d="M125 129l1 3-3 5-2-1c2.875-5.875 2.875-5.875 4-7z" fill="#ebebeb" />
</svg>