<svg xmlns="http://www.w3.org/2000/svg" viewBox="0 0 610 445">
    <style>
        .B{fill:#e7e7e7}.C{fill:#fdfdfd}.D{fill:#e6e6e6}.E{fill:#fefefe}.F{fill:#fdfefd}.G{fill:#fcfdfc}.H{fill:#e6e7e6}.I{fill:#e5e5e5}.J{fill:#fcfdfd}.K{fill:#fcfcfc}.L{fill:#e5e6e5}.M{fill:#e7e8e7}.N{fill:#e8e8e8}.O{fill:#fdfefe}.P{fill:#fefefd}.Q{fill:#e5e6e6}.R{fill:#e7e6e7}.S{fill:#e6e7e7}.T{fill:#e9e9e9}.U{fill:#fdfdfc}.V{fill:#e8e9e8}.W{fill:#e6e5e6}.X{fill:#fbfbfb}.Y{fill:#fbfcfb}.Z{fill:#e7e7e8}.a{fill:#fbfcfc}.b{fill:#e8e7e8}.c{fill:#e4e5e4}.d{fill:#e7e7e6}.e{fill:#e6e6e7}.f{fill:#e7e8e8}.g{fill:#fbfdfc}.h{fill:#fdfdfe}.i{fill:#fefdfd}.j{fill:#fefdfe}.k{fill:#e6e5e5}</style>
    <path fill="#fafafa" d="M0 0h610v445H0V0Z" />
    <path fill="#3b81b6"
        d="m303.313 127.688 2.974-.05c16.16-.01 29.28 7.241 40.72 18.303 4.472 4.79 7.47 10.028 9.993 16.059l1.11 2.645c3.282 12.369 2.211 27.212-4.11 38.355-8.135 13.996-20.524 21.61-35.77 26.113-4.566 1.1-8.989 1.182-13.668 1.137l-2.408.023c-4.947-.016-9.374-.68-14.18-1.82-4.365-1.002-6.195-.913-10.13 1.41a200.32 200.32 0 0 0-3.344 2.45C263.931 240 263.931 240 260 240c-.09-4.357-.059-8.544.5-12.875L261 223l.313-2.594c.452-6.719-.955-10.9-4.938-16.31-4.55-4.014-9.906-3.318-15.688-3.096l-7.05.063-3.134.097C228 201 228 201 226 199c-.25-2.5-.25-2.5 0-5 2.561-2.561 3.666-2.297 7.227-2.414l3.125-.117 3.273-.094 3.297-.117L251 191c.043-2 .04-4 0-6-2.223-2.223-8.035-1.405-11.186-1.518-5.6-.269-5.6-.269-7.814-2.482-.25-2.5-.25-2.5 0-5 2.752-2.752 4.435-2.295 8.285-2.379l3.795-.103 3.982-.08 7.786-.192 3.5-.072c2.574.124 2.574.124 3.652-1.174.167-2.5.167-2.5 0-5-1.61-1.61-3.396-1.184-5.621-1.246l-2.834-.1-5.953-.172-2.838-.103-2.615-.076C241 165 241 165 239 163c-.25-2.5-.25-2.5 0-5 2-2 2-2 5.258-2.195l3.867.07 3.883.055L255 156l.75-2.195c4.846-10.874 16.347-18.431 26.95-22.98 7.1-2.545 13.068-3.162 20.613-3.137z" />
    <path fill="#ededed"
        d="M600 169h10v116h-10v10h-11v-10h-10v10h-11v-10h-10l-1-9-10-1v10h-10l.063 4.938L537 295c-1 1-1 1-3.066 1.098L527 296v10h10v10h-10l-1-10h-10l-1-10h-8l-1 10h-11v-11h10v-10h-5c.6-3.683 1.248-7.345 2-11h3v-11l11 1v-10h-8v-11h18v-11h10v1h-9v10h10v-32h10v11h11v-11h10v11h11v10c-1 1-1 1-3.285 1.098L568 233v10h11l-.063-4.938A91.472 91.472 0 0 1 579 233c1-1 1-1 3.066-1.098L589 232v-10h11v-11h-11v-10l10-1 1-10h-11v-10l10-1 1-10z" />
    <path fill="#f6f6f6"
        d="M44 295c2.729.033 5.297.564 8 1l1 9 10 1v11h11v10H63v11h10l1 10H63v11H53v10l10 1v10h11v10c-1 1-1 1-3.285 1.098L63 391v10H53v10l4.438-.063L62 411c1 1 1 1 1.098 3.285L63 422h11v11H63v10c-7.045.817-13.91 1.121-21 1v-1h10v-10H42l-1-10-1 9h-8v-10h8v-11h-8v-10h8v-11h-8v-10h7v-10l2-1c.468-2.356.468-2.356.625-5.063L42 359h10v-10l-3.875.063c-3.875.062-3.875.062-6.125-1.063v-10H21v-11h10l-.063-4.875c-.007-5.444.436-10.72 1.063-16.125h10l-.125-4.375c-.07-2.46-.07-2.46.125-4.625l2-2z" />
    <path fill="#f6f8f8"
        d="M318.438 151.36c7.17 4.59 12.342 11.436 14.562 19.64.983 9.887.47 17.448-5 26a175.448 175.448 0 0 0-2 4l1.313 1.355c4.565 4.957 4.565 4.957 5.187 8.458C332 213 332 213 330 215c-3.406 0-5.952-.058-8.57-2.41-1.218-1.472-2.333-3.027-3.43-4.59l-3.063 1c-10.304 2.48-20.074 2.16-29.343-3.172C278.535 200.853 273.952 194.46 272 186c-1.302-10.292-.071-18.475 6-27 10.954-12.707 25.727-15.839 40.438-7.64Z" />
    <path fill="#f8f8f8"
        d="M537 159h10l1 10h10v10h10v-10h11v10h10v-10h11v10c-1 1-1 1-3.285 1.098L589 180v10h11v10c-1 1-1 1-3.285 1.098L589 201v10h11v11h-11v10l-9 1-1 10h-11v-10l10-1 1-10h-11v-11h-10v11h-11v-11h-10v-10l-10-1v-10h10v10h10v-10h10v-10h-10v-11h-10v-10z" />
    <path
        d="M527 106h10v10h10v-10h11v10h10v-10h11v10h10v-10h11v10h10v11h-10v11h-11v-11h-10l.063 4.438L579 136c-1 1-1 1-3.285 1.098L568 137v-10h-10v-10h-10v10h9v10h-9l-1-10h-10v-10l-4.438.063c-1.52.02-3.043.009-4.562-.063-1-1-1-1-1.098-3.285L527 106z"
        class="X" />
    <path fill="#3c7db4"
        d="M202.813 255.25c5.525 3.034 9.145 5.625 11.187 11.75.769 7.984.015 14.589-3 22l1.488 1.332C214 292 214 292 214.188 294.688L214 297c-2.25.75-2.25.75-5 1l-1.938-2-2.062-2c-2.77.21-2.77.21-6 1-6.284.696-11.04.403-16.238-3.414-4.417-3.976-6.468-7.187-7.203-13.191-.221-7.223-.229-12.716 4.441-18.395 6.612-6.116 14.185-8.212 22.813-4.75Z" />
    <path fill="#3a81b6"
        d="M313.656 161.414c3.946 2.67 6.605 5.078 8.344 9.586.906 7.161 1.384 13.886-3 20-2.23-1-3.781-1.742-5.375-3.625-2.429-2.055-4.559-1.58-7.625-1.375-.465 4.793-.465 4.793 1.5 8.938L309 196l-1 3c-7.264.473-12.104.48-18-4-4.792-4.779-7.287-8.95-7.375-15.75.125-6.416 1.38-11.043 5.8-15.777 7.978-7.112 16.226-7.09 25.231-2.059Z" />
    <path fill="#eae9ea"
        d="M95 190h10v11H95v10h9v11h-9v10h9c1.715 3.43 1.054 7.217 1 11H95v10H84v-10H74v-10c1-1 1-1 3.066-1.098L84 232v-10H74v-11h10v-10l10-1 1-10z" />
    <path
        d="M589 233h11v10h10v31h-10v-10h-11v10h-10v-10h-11v-10l10-1 1-10h10v-10zM53 0l9.875-.063 2.781-.025C71.845-.11 77.851.292 84 1l1 10 10 1v10h10l1-10h10v10h-10l-1 21H95V33H84V22H74V11H63V1H53V0z"
        class="K" />
    <path
        d="M589 33h21v52h-10V75h-11V64h11V54h-11V33ZM11 43h10v11H11v10h10v11h10v10H21v10H11V85H0V54l10-1 1-10Z"
        class="B" />
    <path
        d="M453 43h10v11h11v10h-10v11h10v10h-10v9l-2 1-1.813-2.75L455 85h8V75h-10v8a367.08 367.08 0 0 1-3.438-2.813l-1.933-1.582C446 77 446 77 445 74h8V64h-10v8c-4.003-1.761-7.603-4.261-11-7v-1h10V54h11V43z"
        class="T" />
    <path fill="#ebebeb" d="M137 12h10v10h11v11h11v10h-21l-1-9-10-1v10h-11V22h11V12Z" />
    <path fill="#ee8a4a"
        d="M360 252.875c3 .125 3 .125 4 1.125l.063 6.563-.028 3.628L364 267l3-2c3.39-.546 6.61-.552 10 0 3.063 2.438 3.063 2.438 5 5l1 1c.252 3.639.185 7.29.188 10.938l.037 3.115.005 2.974.013 2.742C383 293 383 293 381 295c-4.556-.556-4.556-.556-6-2a72.893 72.893 0 0 1-.281-4.438l-.114-2.71-.21-5.704-.114-2.71-.092-2.504c.017-1.94.017-1.94-1.189-2.934-3.5-.167-3.5-.167-7 0-1.576 1.576-1.182 3.217-1.246 5.402l-.1 2.698-.172 5.664-.103 2.7-.076 2.489C364 293 364 293 362 295c-4.556-.556-4.556-.556-6-2-.101-2.873-.14-5.72-.133-8.594l-.003-2.611.006-5.478-.007-8.415.004-5.308-.006-2.56c.028-6.988.028-6.988 4.139-7.159z" />
    <path fill="#4384bb"
        d="M296 252.875c3 .125 3 .125 4 1.125l.098 4.91-.01 2.998-.026 3.154-.013 3.167L300 276h2l.793-1.766C304.81 270.5 307.662 267.6 311 265c2.938-.438 2.938-.438 5 0 .746 2.23.746 2.23 1 5-1.652 2.238-1.652 2.238-3.938 4.313l-2.277 2.113L309 278l1.207 1.61L315 286l1.719 2.125C318 290 318 290 317.688 292.25L317 294l-5 1a1387.983 1387.983 0 0 1-5-5.875l-1.445-1.684C302 283.227 302 283.227 302 281h-2l.035 2.809.027 3.628.036 3.622C300 294 300 294 299 295c-2.438.188-2.438.188-5 0-2.64-2.64-2.238-4.555-2.252-8.147l.022-2.544V281.7l.024-5.46.02-8.387.018-5.295.003-2.55c.058-6.963.058-6.963 4.165-7.134z" />
    <path fill="#f1904f"
        d="M347.277 254.895C349.187 256 349.187 256 352 258l-1 5c-3 1-3 1-5.25.063-4.071-1.573-7.796-1.606-12-.438-3.1 2.436-4.467 5.455-5.04 9.336-.235 5.603 1.164 9.677 4.978 13.914 5.254 2.556 11.735 1.055 17.312.125l1 5c-5.658 4.488-10.962 4.7-18 4-6.039-1.964-9.828-6.543-13.11-11.766-2.232-5.602-1.987-13.155.02-18.789 5.371-9.153 16.236-13.53 26.367-9.55Z" />
    <path fill="#f08a49"
        d="m398.875 264.688 3.117-.051c3.427.414 5.253 1.313 8.008 3.363 2.234 3.351 2.238 4.418 2.195 8.324l-.02 3.115-.05 3.248-.027 3.284L412 294l-5 1-1-3-2.563 1.5c-3.899 1.701-6.228 2.036-10.437 1.5-2.875-1.563-2.875-1.563-5-4-.917-3.422-1.328-5.818-.375-9.25 2.49-3.168 4.928-4.52 8.926-5.156 2.483-.253 4.957-.454 7.449-.594l-1-4h-13v-5c3.423-2.282 4.841-2.297 8.875-2.313z" />
    <path d="M432 401h10v10h11v11h-11v10h-10v-10h-10v-10c1-1 1-1 3.066-1.098L432 411v-10z" class="K" />
    <path
        d="M432 380v10h10v11h-10v10h-11v-10h-10c-.313-3.25-.313-3.25 0-7 2.55-2.842 3.99-3.91 7.813-4.25L421 390l.254-1.797c.964-2.848 2.26-3.718 4.683-5.453l2.153-1.578C430 380 430 380 432 380Z"
        class="T" />
    <path fill="#3e80b6"
        d="M223.563 264.813C226 265 226 265 227 266l.281 4.184.114 2.56.105 2.693.219 5.247.092 2.36c.079 2.034.079 2.034 1.189 3.956h7c1.58-1.58 1.2-3.247 1.281-5.438l.114-2.71.105-2.852.219-5.563.092-2.503C238 266 238 266 239 265c2.5-.125 2.5-.125 5 0 2.417 2.417 1.282 8.507 1.313 11.75l.087 3.04c.065 7.44.065 7.44-2.283 11.331-4.304 3.82-8.376 4.283-13.969 4.125-3.099-.355-4.81-1.183-7.148-3.246-3.375-5.246-3.427-9.724-3.313-15.75l-.01-2.613c.074-8.472.074-8.472 4.886-8.825z" />
    <path d="M0 327h11v11h10v10l-9 1-1 10H0v-32Z" class="K" />
    <path d="M600 54h10v31h-10V75h-11V64h11V54Z" class="N" />
    <path fill="#f4f8f9"
        d="M198 261c3.704 2.027 5.654 3.48 8 7 .266 2.594.266 2.594.25 5.5l.016 2.906C206 279 206 279 204 282l-1.688-1.938c-2.533-2.259-3.995-2.693-7.312-3.062.325 4.822.325 4.822 2.563 8.938L199 287c-1 1-1 1-4.188 1.375-5.038-.496-6.355-1.754-9.812-5.375-1.661-4.76-1.658-10.05-1-15 3.222-6.203 7.292-7.559 14-7Z" />
    <path d="M11 264h10l1 10 9 1v20H21v-10H11v-21Z" class="C" />
    <path fill="#f0914f"
        d="M424 256.875c3 .125 3 .125 4 1.125v7l2.938-.063C434 265 434 265 435 266v5h-7l1 16 7 2-1 5c-3.1 1.55-5.579 1.29-9 1-2.753-1.796-4.526-3.053-6-6a61.388 61.388 0 0 1-.098-4.133l.01-2.441.026-2.551.013-2.574L420 271h-4v-5l4-1-.063-3.438c.08-4.521.08-4.521 4.063-4.687z" />
    <path fill="#3f82ba"
        d="m279.063 264.688 3.16.011C285 265 285 265 288 267c.188 2.625.188 2.625 0 5l-2.555-.105-3.32-.082-3.305-.106L276 272c-2.167 3.25-2.272 4.292-2.25 8.063l-.016 2.66c.05 2.475.05 2.475 2.266 4.277 3.903.217 7.241.012 11-1 1 1 1 1 1.375 3.375C288 292 288 292 286.062 293.813c-4.14 1.605-7.676 1.883-12.062 1.187-4.52-2.26-6.761-4.523-9-9-.832-5.572-.746-10.48 1.75-15.563 4.02-4.354 6.262-5.847 12.313-5.75Z" />
    <path d="M158 422h11v10h11v-10h10v11h-10v10h-11v-10h-11v-11Z" class="K" />
    <path d="M32 306h10v10l-10 1v10h10v11H21v-11h10l-.063-4.875c-.007-5.444.436-10.72 1.063-16.125Z"
        class="G" />
    <path d="M568 401h11v10h10v11h-10v-10l-10 1-1 9h-10v-11h10v-10Z" class="K" />
    <path
        d="M42 338v10l10 1v10H42v-10l-7-1-.375 2.375C34 353 34 353 32 355l-2-6-9-1v-10c7.28-.95 13.704-.842 21 0Z"
        class="N" />
    <path d="M589 148h21v21h-10v-10h-11v-11Z" class="d" />
    <path
        d="M485 85h10v10h10v11h-10V96l-10-1V85Zm20 0h11v10c-3.494 1.165-6.337 1.136-10 1-1-1-1-1-1.098-3.285L505 85Z"
        class="C" />
    <path d="M253 422h11v11h10v10h10l1 2h-53v-1l31-1v-10h-10v-11Z" class="V" />
    <path d="M116 412h10v21c-11.25 0-11.25 0-15.625-.5L106 432l-1-10h11v-10Z" class="G" />
    <path fill="#fafafa" d="m35 348 7 1v10h-3v10h-8v-19l2 3 2-5Zm-14 21h10v11H21v-11Z" />
    <path fill="#ee803f"
        d="m327 273 .7 2.047c2.519 7.257 2.519 7.257 8.3 11.953 5.155.416 9.915-.153 15-1l1 5c-5.658 4.488-10.962 4.7-18 4-5.417-1.762-8.715-5.556-12-10-1.106-2.213-1.196-3.547-1.25-6l-.078-2.125L321 275c3-2 3-2 6-2Z" />
    <path fill="#4282b5"
        d="m253 265 7 1 .125 13.375.05 3.852.02 3.671.032 3.396C260 293 260 293 258 295c-2.563.188-2.563.188-5 0-1.83-1.83-1.13-4.732-1.133-7.188l-.004-3.804.007-1.991-.007-6.025.004-3.805.004-3.519C252 266 252 266 253 265z" />
    <path d="M63 327h11v11h10v10H74c-1.158-3.473-1.069-6.36-1-10H63v-11Z" class="B" />
    <path d="m463 390 7.688-.063 2.185-.025c3.843-.017 7.393.153 11.127 1.088v10h-21v-11z" class="G" />
    <path d="M547 327h11v11h-10l-1 10h-10v-10h10v-11Z" class="N" />
    <path d="M137 422h11v11h-11v10h-10v-10l10-1v-10Z" class="C" />
    <path d="M589 401h11v10h10v11h-10l-1-11h-10v-10Z" class="K" />
    <path
        d="M11 380h10v10l-9 1-1 10H0v-11h11v-10Zm0-42h10v10l-9 1-1 10H0v-11h11v-10Zm568-53h10v10l-9 1-1 10h-11v-11h11v-10Z"
        class="C" />
    <path d="M600 169h10v11h-10v10h-11v-10l10-1 1-10Z" class="B" />
    <path d="M11 43h10v11H11v10H0V54l10-1 1-10Z" class="e" />
    <path d="M126 422h11v10l-10 2-1 9h-10v-10h10v-11Z" class="R" />
    <path
        d="M116 127h10c-.468 4.056-.88 7.466-3 11h-7v10h2l-2 4-2-3c-2.195-.58-2.195-.58-4.625-.688L105 148v-10l10-1 1-10Z"
        class="B" />
    <path d="M579 222h10v10l-9 1-1 10h-11v-10l10-1 1-10Z" class="J" />
    <path d="M32 106h10v10l-9 1-1 10H21v-10l10-1 1-10Zm505 21h10v11h-10v10h-10v-10l9-1 1-10Z"
        class="H" />
    <path d="M463 401h21v10h-21v-10Z" class="M" />
    <path d="M463 380h21v10h-21v-10Z" class="B" />
    <path d="M116 22h10v21h-10V22Z" class="F" />
    <path
        d="M95 433h20v10c-6.385.72-12.573 1.204-19 1l-1-1v-10Zm-11-11h10v10c-3.215 1.607-6.436 1.057-10 1v10H74v-10l9-1 1-10Z"
        class="C" />
    <path d="M537 159h10l1 10h10c.125 6.625.125 6.625-1 10h-9c-1.158-3.473-1.069-6.36-1-10h-10v-10Z"
        class="G" />
    <path d="M464 412h20v10h-20v-10Z" class="F" />
    <path d="M327 12h9l1 3 1-3h9v10h-10l-1 2v-2h-9V12Z" class="S" />
    <path fill="#f1f5f7"
        d="M298 165h11l-5 10h5c-3.563 5.092-7.047 9.227-12 13l3-9h-5c.715-4.764 1.795-9.342 3-14Z" />
    <path d="M442 54h11v10h-10v8c-4.003-1.761-7.603-4.261-11-7v-1h10V54Z" class="M" />
    <path fill="#3f76a8"
        d="m214.727 173.863 2.273.012 2.273-.012c5.6.01 5.6.01 6.727 1.137.188 2.938.188 2.938 0 6-2.863 2.863-4.952 2.3-8.938 2.313l-3.777.05C210 183 210 183 208.043 181.645 207 180 207 180 207.25 177.375c1.364-4.319 3.22-3.504 7.477-3.512Z" />
    <path d="M484 319h1v8h10v11h-11v-11h-4c1.125-2.972 2.223-5.334 4-8Z" class="R" />
    <path fill="#f09a5b"
        d="m398.875 264.688 3.117-.051c3.4.41 5.267 1.344 8.008 3.363l1 2c-1.25 2.625-1.25 2.625-3 5h-3v2l-4-1h3l-1-4h-13v-5c3.423-2.282 4.841-2.297 8.875-2.313Z" />
    <path d="M379 422h11v11h-11v-11Z" class="B" />
    <path d="M442 390h11v11h-11v-11Z" class="K" />
    <path d="M589 369h11v11h-11v-11Zm-431 0h11v11h-11v-11Z" class="B" />
    <path d="M463 348h11v11h-11v-11Z" class="M" />
    <path d="M63 348h11v11H63v-11Zm526-21h11v11h-11v-11Z" class="B" />
    <path d="M105 327h11v11h-11v-11Zm0-21h11v11h-11v-11Z" class="N" />
    <path d="M589 211h11v11h-11v-11Z" class="a" />
    <path d="M568 211h11v11h-11v-11Zm-21 0h11v11h-11v-11Zm42-63h11v11h-11v-11Z" class="K" />
    <path fill="#fbfbfc" d="M568 148h11v11h-11v-11Z" />
    <path d="M547 148h11v11h-11v-11Z" class="K" />
    <path d="M63 127h11v11H63v-11Z" class="U" />
    <path d="M0 64h11v11H0V64Z" class="K" />
    <path d="M589 43h11v11h-11V43Z" class="Y" />
    <path d="M568 43h11v11h-11V43Zm-126 0h11v11h-11V43Z" class="K" />
    <path d="M190 22h11v11h-11V22Z" class="N" />
    <path d="M158 22h11v11h-11V22Z" class="C" />
    <path d="M547 422h11v11h-10c-1-1-1-1-1.098-3.285L547 422z" class="G" />
    <path d="M316 422h11v10c-1 1-1 1-3.285 1.098L316 433v-11z" class="B" />
    <path d="M568 306h11v10c-1 1-1 1-3.285 1.098L568 317v-11z" class="f" />
    <path fill="#f38e4c"
        d="M318.105 246.492c2.207.008 2.207.008 5.895.508-1.389 5.05-3.232 10.242-7 14-2.952.712-4.928.417-8 0 3.626-13.186 3.626-13.186 9.105-14.508Z" />
    <path d="M589 169h11v10c-1 1-1 1-3.285 1.098L589 180v-11z" class="X" />
    <path d="M63 148h11v10c-1 1-1 1-3.285 1.098L63 159v-11z" class="Y" />
    <path d="M589 64h11v10c-1 1-1 1-3.285 1.098L589 75V64zM0 43h11v10c-1 1-1 1-3.285 1.098L0 54V43z"
        class="C" />
    <path d="M589 411h10c1.283 3.85 1.066 6.947 1 11h-11v-11Z" class="N" />
    <path d="M126 348h10c1.627 3.253 1.115 6.392 1 10-1 1-1 1-3.285 1.098L126 359v-11Z" class="V" />
    <path d="M126 327c7.38-.484 7.38-.484 10 1.563 1.328 3.236 1.2 5.976 1 9.437h-11v-11Z" class="N" />
    <path d="m12 433-1 10H0v-10c9.75-1.125 9.75-1.125 12 0Z" class="f" />
    <path d="m399 400 12 1v10h-11l-1-11Z" class="B" />
    <path d="M105 127h11v10c-2.995.998-4.173 1.007-7.188.563L105 137v-10Z" class="C" />
    <path d="M400 33h11v10l-12 1 1-11Z" class="D" />
    <path d="M505 411h11v11h-10l-1-11zM74 390v11H63v-10l4.938-.5 2.777-.281L74 390z" class="B" />
    <path d="M495 327h10l1 10c-1 1-1 1-3.285 1.098L495 338v-11z" class="J" />
    <path
        d="M589 190h11v10c-3.467 1.734-7.239.484-11 0v-10ZM126 43h11v11c-7.75.125-7.75.125-10-1-.601-3.317-.744-6.634-1-10Z"
        class="G" />
    <path d="M337 0h21v1h-11v10h-9l-1-11Z" class="J" />
    <use class="B" href="#B" />
    <use x="-21" class="N" href="#B" />
    <use x="-147" class="a" href="#B" />
    <use x="-168" class="C" href="#B" />
    <use x="-189" class="g" href="#B" />
    <use x="-210" class="C" href="#B" />
    <use x="-399" class="G" href="#B" />
    <use x="-431" class="D" href="#B" />
    <use class="I" href="#C" />
    <use x="-42" class="W" href="#C" />
    <use x="-105" y="-11" class="K" href="#B" />
    <use x="-147" class="F" href="#C" />
    <use x="-210" class="C" href="#C" />
    <use x="-231" class="F" href="#C" />
    <use x="-252" class="K" href="#C" />
    <use x="-357" class="F" href="#C" />
    <use x="-368" class="L" href="#C" />
    <use class="C" href="#D" />
    <use x="-420" y="-11" class="D" href="#B" />
    <use x="-452" class="M" href="#C" />
    <use fill="#fafcfb" href="#E" />
    <use x="-189" y="-21" class="C" href="#B" />
    <use x="-399" y="-21" class="G" href="#B" />
    <use fill="#e5e5e6" href="#F" />
    <use x="-105" y="-11" class="C" href="#C" />
    <path d="M442 401h11v10h-11v-10Zm-252 0h11v10h-11v-10Z" class="B" />
    <use x="-431" y="-32" class="F" href="#B" />
    <use class="B" href="#G" />
    <use y="-42" class="N" href="#B" />
    <use x="-147" y="-32" class="M" href="#C" />
    <use x="-420" y="-32" class="H" href="#C" />
    <use x="-431" y="-42" class="M" href="#B" />
    <use x="-463" y="-32" fill="#e6e6e5" href="#C" />
    <use y="-53" class="C" href="#B" />
    <use class="K" href="#H" />
    <use x="-147" y="-53" fill="#e9e8e9" href="#B" />
    <use x="-420" y="-53" class="R" href="#B" />
    <use x="-484" y="-53" class="C" href="#B" />
    <use y="-42" class="K" href="#E" />
    <use y="-21" class="B" href="#G" />
    <use y="-42" class="I" href="#F" />
    <use y="-53" class="C" href="#C" />
    <use class="K" href="#I" />
    <use x="-105" y="-53" class="i" href="#C" />
    <path d="M474 369h10v11h-10v-11Zm-379 0h10v11H95v-11Z" class="C" />
    <use class="f" href="#J" />
    <use y="-21" class="G" href="#H" />
    <use y="-63" class="F" href="#E" />
    <use y="-42" class="S" href="#G" />
    <path d="M600 348h10v11h-10v-11Zm-84 0h10v11h-10v-11Z" class="C" />
    <use x="-484" y="-95" class="K" href="#B" />
    <use y="-63" class="D" href="#G" />
    <use y="-95" class="G" href="#C" />
    <use x="-42" y="-95" class="X" href="#C" />
    <use y="-42" class="C" href="#I" />
    <use class="J" href="#K" />
    <path d="M74 327h10v11H74v-11Z" class="C" />
    <use y="-84" class="B" href="#F" />
    <use y="-42" class="D" href="#J" />
    <use y="-116" class="C" href="#B" />
    <use y="-105" class="E" href="#E" />
    <use y="-84" class="B" href="#G" />
    <use y="-21" class="C" href="#K" />
    <use y="-116" class="D" href="#E" />
    <use x="21" y="-95" class="B" href="#H" />
    <use y="-158" class="G" href="#B" />
    <use y="-147" class="C" href="#E" />
    <use x="-21" y="-169" class="B" href="#B" />
    <use y="-179" class="G" href="#B" />
    <use x="-21" y="-190" class="B" href="#B" />
    <use y="-200" class="G" href="#B" />
    <use x="-21" y="-211" class="S" href="#B" />
    <use x="-42" y="-211" class="B" href="#B" />
    <use x="-21" y="-211" class="M" href="#C" />
    <use x="336" y="-211" class="B" href="#D" />
    <use x="-73" y="-211" class="G" href="#C" />
    <use y="-200" class="C" href="#F" />
    <use y="-158" class="M" href="#J" />
    <use x="-21" y="-232" class="B" href="#B" />
    <use x="-21" y="-253" class="M" href="#B" />
    <use y="-221" class="H" href="#G" />
    <use y="-158" class="M" href="#K" />
    <use y="-274" class="I" href="#B" />
    <use x="-42" y="-274" class="B" href="#C" />
    <use x="-94" y="-274" class="C" href="#C" />
    <use y="-179" class="W" href="#K" />
    <path d="M84 148h10v11H84v-11Zm-42 0h10v11H42v-11Z" class="C" />
    <path d="M21 148h10v11H21v-11Z" class="K" />
    <use y="-221" class="B" href="#J" />
    <path d="M0 148h10v11H0v-11Z" class="E" />
    <use y="-263" class="H" href="#G" />
    <path d="M600 127h10v11h-10v-11Zm-526 0h10v11H74v-11Z" class="B" />
    <use y="-316" class="I" href="#B" />
    <path d="M589 96h11v10h-11V96Z" class="N" />
    <path d="M126 96h11v10h-11V96Z" class="M" />
    <path d="M63 96h11v10H63V96Z" class="N" />
    <path d="M589 75h11v10h-11V75Z" class="L" />
    <path d="M126 75h11v10h-11V75Z" class="b" />
    <path d="M84 75h11v10H84V75Z" class="R" />
    <path d="M63 75h11v10H63V75Zm95-11h11v10h-11V64Z" class="D" />
    <path d="M568 54h11v10h-11V54Z" class="S" />
    <path d="M126 54h11v10h-11V54Z" class="M" />
    <path d="M105 54h11v10h-11V54Z" class="D" />
    <path d="M63 54h11v10H63V54Zm537-11h10v11h-10V43Z" class="B" />
    <use class="H" href="#L" />
    <use x="-105" class="B" href="#L" />
    <use x="-126" class="M" href="#L" />
    <use x="-136" class="G" href="#L" />
    <path d="M169 43h11v10h-11V43Z" class="H" />
    <path fill="#e7e6e6" d="M568 33h11v10h-11V33Z" />
    <path d="M547 33h11v10h-11V33Z" class="B" />
    <path d="M484 33h11v10h-11V33Zm-42 0h11v10h-11V33Z" class="D" />
    <path d="M169 33h11v10h-11V33Z" class="U" />
    <path d="M63 33h11v10H63V33Z" class="I" />
    <path d="M600 22h10v11h-10V22Z" class="S" />
    <path d="M589 22h11v10h-11V22Z" class="C" />
    <path d="M568 22h11v10h-11V22Z" class="K" />
    <path d="M74 22h10v11H74V22Z" class="I" />
    <path d="M32 22h10v11H32V22Zm557-10h11v10h-11V12Zm-210 0h11v10h-11V12Z" class="D" />
    <path d="M158 12h11v10h-11V12Z" class="H" />
    <path d="M589 1h11v10h-11V1Z" class="K" />
    <path
        d="M516 0c6.766-.114 13.288.12 20 1v10c-6.934.098-6.934.098-9 0-1-1-1-1-1.098-3.066L526 1h-10V0Z"
        class="G" />
    <path d="M169 1h11v10h-11V1Z" class="V" />
    <path d="M158 1h11v10h-11V1Z" class="G" />
    <path fill="#e6e6e5" d="M126 1h11v10h-11V1Z" />
    <path d="M0 1h11v10H0V1Z" class="E" />
    <path d="M550.285 432.902 558 433v10h-11v-9c1-1 1-1 3.285-1.098z" class="H" />
    <path d="M74 422h10v10c-1 1-1 1-3.066 1.098L74 433v-11z" class="B" />
    <path d="M571.285 411.902 579 412v10h-11v-9c1-1 1-1 3.285-1.098z" class="Z" />
    <path d="M172.285 411.902 180 412v10h-11v-9c1-1 1-1 3.285-1.098z" class="K" />
    <path
        d="M105 412h10c1 1 1 1 1.098 3.066L116 422h-11v-10zm-42 0h10c1 1 1 1 1.098 3.066L74 422H63v-10zm-48.934-1.098L21 411v11H11v-10c1-1 1-1 3.066-1.098zm495-63L516 348v11h-10v-10c1-1 1-1 3.066-1.098z"
        class="B" />
    <path d="M558 348h9c1 1 1 1 1.098 3.285L568 359h-10v-11z" class="C" />
    <path d="M119.066 347.902 126 348v11h-10v-10c1-1 1-1 3.066-1.098z" class="G" />
    <path d="M516 327h10v10c-1 1-1 1-3.066 1.098L516 338v-11z" class="K" />
    <path fill="#eaeaea" d="M509.066 326.902 516 327v11h-10v-10c1-1 1-1 3.066-1.098z" />
    <path d="M516 211h10v10c-1 1-1 1-3.066 1.098L516 222v-11z" class="N" />
    <path d="M527 148h10v10c-1 1-1 1-3.066 1.098L527 159v-11z" class="J" />
    <path d="M527 127h10v10c-1 1-1 1-3.066 1.098L527 138v-11z" class="G" />
    <path fill="#e9e8e9" d="M87.285 116.902 95 117v10H84v-9c1-1 1-1 3.285-1.098z" />
    <path d="M108.285 95.902 116 96v10h-11v-9c1-1 1-1 3.285-1.098z" class="N" />
    <path
        d="M126 85h11v9c-1 1-1 1-3.285 1.098L126 95V85zm359-21h10v10c-1 1-1 1-3.066 1.098L485 75V64zm-21 0h10v10c-1 1-1 1-3.066 1.098L464 75V64z"
        class="C" />
    <path
        d="M190 43h11c.43 5.239.43 5.239 0 8-2.125 2.063-2.125 2.063-5 3-3.313-.313-3.313-.313-6-1V43Z"
        class="V" />
    <path d="M63 43h11v9c-1 1-1 1-3.285 1.098L63 53V43z" class="G" />
    <path
        d="M411 22h10v10c-1 1-1 1-3.066 1.098L411 33V22zm-179 0h10v10c-1 1-1 1-3.066 1.098L232 33V22z"
        class="B" />
    <path fill="#e5e5e6" d="M0 12h10c1 1 1 1 1.098 3.066L11 22H0V12z" />
    <use class="B" href="#M" />
    <use class="T" href="#N" />
    <path d="M0 306h11c.125 7.75.125 7.75-1 10H0v-10Z" class="J" />
    <path
        d="m508.813 294.867 2.187.008 2.188-.008C515 295 515 295 516 296v10h-10v-10c1-1 1-1 2.813-1.133z"
        class="E" />
    <use x="21" y="-74" class="Y" href="#N" />
    <path d="M547 275h10c1 1 1 1 1.133 2.813l-.008 2.187.008 2.188C558 284 558 284 557 285h-10v-10z"
        class="K" />
    <path d="M63 148v11H53v-10c3.215-1.607 6.436-1.057 10-1Z" class="D" />
    <path d="M63 106h11c.125 7.75.125 7.75-1 10H63v-10Z" class="C" />
    <use x="410" y="-316" class="Q" href="#M" />
    <path d="M0 85h11c.125 7.75.125 7.75-1 10H0V85Z" class="C" />
    <path fill="#fafcfc" d="M21 43h10v10c-3.215 1.607-6.436 1.057-10 1V43Z" />
    <use class="O" href="#O" />
    <use class="G" href="#P" />
    <path d="M62 411c1 1 1 1 1.098 3.285L63 422H53v-10c2.982-1.491 5.716-1.12 9-1Z" class="C" />
    <use x="-274" y="-127" class="B" href="#P" />
    <use x="-390" y="-295" class="C" href="#O" />
    <path d="M568 64h11c.125 6.625.125 6.625-1 10h-10V64Z" class="X" />
    <path d="M527 64h10v10c-1 1-1 1-4.438 1.125C529 75 529 75 527 74V64z" class="K" />
    <path d="M568 12h10c1.158 3.473 1.069 6.36 1 10h-11V12Z" class="S" />
    <path d="M127 12h10v10h-11c-.125-6.625-.125-6.625 1-10Z" class="F" />
    <path d="M463 1h11v10h-10c-1.158-3.473-1.069-6.36-1-10Z" class="G" />
    <path d="M379 1h11c.125 6.625.125 6.625-1 10h-10V1Z" class="U" />
    <path d="m21 411 10 1v10H21v-11Z" class="K" />
    <path d="M568 391h10l1 10h-11v-10Z" class="B" />
    <use class="C" href="#Q" />
    <path d="M21 85h10v10l-9 1c-1-1-1-1-1.098-3.285L21 85z" class="G" />
    <path d="M63 64h11l-1 10H63V64Z" class="E" />
    <path d="M379 22h11l-1 10h-10V22Z" class="C" />
    <path d="M589 306h11l-1 10h-10v-10Zm0-63h11l-1 10h-10v-10Z" class="B" />
    <path d="M547 159h11v10h-10l-1-10Z" class="D" />
    <path d="M127 64h10v10l-1 1c-3.021-.177-5.996-.62-9-1V64z" class="G" />
    <path d="M105 64h11v9c-1 1-1 1-3.066 1.098L106 74l-1-10z" class="C" />
    <use x="21" y="253" class="E" href="#Q" />
    <path d="M569 349h9c1 1 1 1 1.098 3.066L579 359h-11l1-10z" class="D" />
    <path d="M44 295c2.729.033 5.297.564 8 1v10H42v-9l2-2z" class="E" />
    <path
        d="M40 411h2l.063 5.438.035 3.058C42 422 42 422 41 423a85.688 85.688 0 0 0-.563 4.563l-.253 2.503L40 432h-8v-10h8v-11z"
        class="K" />
    <path d="M495 369v11h-10v-10c6.625-1 6.625-1 10-1Z" class="B" />
    <path d="m53 369 10 1v10H53v-11Z" class="C" />
    <path d="M63 338h10l1 10H63v-10Z" class="G" />
    <path d="M0 254h10c1 4 .807 6.055 0 10H0v-10Z" class="O" />
    <use x="42" y="42" class="F" href="#Q" />
    <path d="M63 85h10v10l-10 1V85Z" class="G" />
    <use class="C" href="#R" />
    <path d="M84 412h10l1 10H84v-10Z" class="B" />
    <path d="M548 317h10v10h-11l1-10Z" class="C" />
    <use x="63" class="U" href="#Q" />
    <path d="M84 54h10l1 10H84V54Z" class="M" />
    <path d="M422 22h10v11l-10-1V22Z" class="G" />
    <path fill="#fcfdfb" d="M158 369v11h-10v-10l4.438-.5 2.496-.281L158 369z" />
    <path d="M516 370v10h-10v-10c3.283-1.642 6.425-.519 10 0Z" class="D" />
    <use x="105" y="316" class="X" href="#R" />
    <path d="M537 295v11h-10v-10l4.438-.5 2.496-.281L537 295z" class="J" />
    <path d="M547 254h10l1 9c-1 1-1 1-3.285 1.098L547 264v-10z" class="G" />
    <path
        d="M63 254h10l1 9c-1 1-1 1-3.285 1.098L63 264v-10zm474-22v11h-10v-10l4.438-.5 2.496-.281L537 232zm-10-42h10v10c-3.283 1.642-6.425.519-10 0v-10zM106 85h10v10c-3.283 1.642-6.425.519-10 0V85z"
        class="C" />
    <use x="63" y="32" class="S" href="#R" />
    <use class="E" href="#S" />
    <use x="-21" class="J" href="#S" />
    <use class="C" href="#T" />
    <use x="-73" class="H" href="#S" />
    <use x="-84" class="J" href="#S" />
    <use x="-94" class="D" href="#S" />
    <use x="-105" class="O" href="#S" />
    <use x="-115" class="H" href="#S" />
    <use x="-126" class="C" href="#S" />
    <use x="-147" class="B" href="#S" />
    <use x="-242" class="F" href="#S" />
    <use x="-252" class="H" href="#S" />
    <use x="-263" class="O" href="#S" />
    <use x="-273" class="I" href="#S" />
    <use x="-284" class="O" href="#S" />
    <use x="-294" class="L" href="#S" />
    <use x="-305" class="F" href="#S" />
    <use x="-315" class="I" href="#S" />
    <use x="-284" class="F" href="#T" />
    <use x="-357" class="D" href="#S" />
    <use x="-368" class="F" href="#S" />
    <use x="-378" class="c" href="#S" />
    <use x="-389" class="C" href="#S" />
    <use x="-420" class="L" href="#S" />
    <use x="-452" class="J" href="#S" />
    <use class="H" href="#U" />
    <use class="O" href="#V" />
    <use class="D" href="#W" />
    <use class="J" href="#X" />
    <use class="E" href="#Y" />
    <use x="-11" y="-11" class="O" href="#S" />
    <use x="-21" y="-11" class="T" href="#S" />
    <use x="-63" y="-11" class="B" href="#S" />
    <use x="-73" y="-11" class="Y" href="#S" />
    <use x="-84" y="-11" class="R" href="#S" />
    <use x="-94" y="-11" class="E" href="#S" />
    <use x="-105" y="-11" class="I" href="#S" />
    <use x="-168" y="-11" class="J" href="#S" />
    <use x="-178" y="-11" class="W" href="#S" />
    <use x="-200" y="-11" class="D" href="#T" />
    <use x="-326" y="-11" class="B" href="#S" />
    <use class="D" href="#Z" />
    <path d="M53 422h10v10H53v-10Zm-32 0h10v10H21v-10Z" class="I" />
    <use y="-11" class="F" href="#Y" />
    <use class="R" href="#a" />
    <use x="-53" y="-21" class="H" href="#S" />
    <use x="-63" y="-21" class="K" href="#S" />
    <use x="-73" y="-21" class="D" href="#S" />
    <use x="-84" y="-21" class="J" href="#S" />
    <use x="-115" y="-21" class="R" href="#S" />
    <use x="-147" y="-21" class="D" href="#S" />
    <use x="-168" y="-21" class="N" href="#S" />
    <use x="-189" y="-21" class="D" href="#S" />
    <use x="-210" y="-21" class="R" href="#S" />
    <use x="-231" y="-21" class="Q" href="#S" />
    <use x="-378" y="-21" class="W" href="#S" />
    <use x="-399" y="-21" class="L" href="#S" />
    <use x="-420" y="-21" class="b" href="#S" />
    <use x="-452" y="-21" class="E" href="#S" />
    <use x="-463" y="-21" class="R" href="#S" />
    <path d="M95 412h10v10H95v-10Zm-21 0h10v10H74v-10Z" class="C" />
    <use y="-32" class="B" href="#S" />
    <use x="-21" y="-32" class="D" href="#S" />
    <use x="-42" y="-32" class="M" href="#S" />
    <use x="-53" y="-32" class="a" href="#S" />
    <use x="-63" y="-32" class="D" href="#S" />
    <use x="-73" y="-32" class="E" href="#S" />
    <use x="-84" y="-32" class="H" href="#S" />
    <use x="-94" y="-32" class="G" href="#S" />
    <use x="-105" y="-32" class="B" href="#S" />
    <use x="-115" y="-32" class="O" href="#S" />
    <use x="-147" y="-32" class="F" href="#S" />
    <use x="-189" y="-32" class="O" href="#S" />
    <use x="-420" y="-32" class="E" href="#S" />
    <use x="-452" y="-32" class="I" href="#S" />
    <use x="-463" y="-32" class="E" href="#S" />
    <use x="-473" y="-32" class="N" href="#S" />
    <use x="-484" y="-32" class="B" href="#S" />
    <use x="-495" y="-32" class="C" href="#S" />
    <use y="-21" class="D" href="#Z" />
    <use y="-32" class="G" href="#U" />
    <use class="L" href="#b" />
    <use class="E" href="#c" />
    <use y="-32" class="S" href="#V" />
    <use y="-32" class="J" href="#W" />
    <use y="-42" class="C" href="#S" />
    <use x="-21" y="-42" class="E" href="#S" />
    <use x="-42" y="-42" class="G" href="#S" />
    <use x="-63" y="-42" class="C" href="#S" />
    <use x="-84" y="-42" class="F" href="#S" />
    <use x="-94" y="-42" class="N" href="#S" />
    <use x="-105" y="-42" class="F" href="#S" />
    <use x="-115" y="-42" class="H" href="#S" />
    <use x="-168" y="-42" class="I" href="#S" />
    <use x="-179" y="-42" class="C" href="#S" />
    <use x="-484" y="-42" class="i" href="#S" />
    <use y="-31" fill="#fcfefd" href="#Z" />
    <use y="-42" class="H" href="#U" />
    <use y="-10" class="E" href="#b" />
    <use y="-42" class="G" href="#V" />
    <use y="-42" class="B" href="#W" />
    <use class="a" href="#d" />
    <use x="-73" y="-53" class="C" href="#S" />
    <use x="-84" y="-53" class="B" href="#S" />
    <use x="-94" y="-53" class="C" href="#S" />
    <use x="-105" y="-53" class="D" href="#S" />
    <use x="-115" y="-53" class="E" href="#S" />
    <use x="-147" y="-53" class="F" href="#S" />
    <use x="-452" y="-53" class="H" href="#S" />
    <use x="-484" y="-53" class="D" href="#S" />
    <use y="-42" class="Q" href="#Z" />
    <use y="-53" class="C" href="#U" />
    <use y="-21" class="I" href="#b" />
    <use y="-53" class="B" href="#V" />
    <use y="-53" class="h" href="#W" />
    <path d="M558 370h10v10h-10v-10Zm-42 0h10v10h-10v-10Z" class="C" />
    <path
        d="m87.066 369.902 2.496.036 2.504.027L94 370l.563 4.438.316 2.496L95 379c-1 1-1 1-3.285 1.098l-2.778-.036-2.785-.027L84 380l-.063-4.438-.035-2.496c.133-2.803.361-3.031 3.164-3.164z"
        class="B" />
    <use y="-31" class="G" href="#b" />
    <use y="-74" class="D" href="#S" />
    <use x="-63" y="-74" class="T" href="#S" />
    <use x="-73" y="-74" class="J" href="#S" />
    <use x="-84" y="-74" class="Q" href="#S" />
    <use x="-94" y="-74" class="E" href="#S" />
    <use x="-105" y="-74" class="R" href="#S" />
    <use x="-115" y="-74" class="F" href="#S" />
    <use x="-126" y="-74" class="H" href="#S" />
    <use x="-452" y="-74" class="B" href="#S" />
    <use x="-484" y="-74" class="D" href="#S" />
    <use x="-495" y="-74" class="C" href="#S" />
    <use y="-63" class="B" href="#Z" />
    <use y="-74" class="K" href="#U" />
    <use y="-74" class="I" href="#V" />
    <use y="-74" class="G" href="#W" />
    <use y="-32" class="Z" href="#d" />
    <use y="-74" class="g" href="#Y" />
    <use x="-21" y="-84" class="J" href="#S" />
    <use x="-63" y="-84" class="X" href="#S" />
    <use x="-73" y="-84" class="H" href="#S" />
    <use x="-105" y="-84" class="C" href="#S" />
    <use x="-115" y="-84" class="V" href="#S" />
    <use x="-126" y="-84" class="J" href="#S" />
    <use y="-73" class="F" href="#Z" />
    <use y="-52" class="C" href="#b" />
    <use y="-84" class="V" href="#Y" />
    <use y="-95" class="B" href="#S" />
    <use x="-21" y="-95" class="I" href="#S" />
    <use x="-32" y="-95" class="O" href="#S" />
    <use x="-73" y="-95" class="E" href="#S" />
    <use x="-94" y="-95" class="G" href="#S" />
    <use x="-105" y="-95" fill="#e8e8e7" href="#S" />
    <use x="-115" y="-95" class="j" href="#S" />
    <use x="-126" y="-95" class="B" href="#S" />
    <use y="-84" class="L" href="#Z" />
    <use y="-95" class="E" href="#U" />
    <use y="-95" class="B" href="#V" />
    <use y="-95" class="C" href="#W" />
    <use x="-73" y="-106" class="W" href="#S" />
    <use y="-116" class="I" href="#S" />
    <use x="-21" y="-116" class="B" href="#S" />
    <use x="-32" y="-116" class="Y" href="#S" />
    <use x="-42" y="-116" class="D" href="#S" />
    <use x="-63" y="-116" class="I" href="#S" />
    <use x="-73" y="-116" class="G" href="#S" />
    <use x="-84" y="-116" class="M" href="#S" />
    <use x="-94" y="-116" class="F" href="#S" />
    <use x="-105" y="-116" class="D" href="#S" />
    <use x="-484" y="-116" class="Q" href="#S" />
    <use y="-116" class="G" href="#U" />
    <use y="-116" class="D" href="#V" />
    <use y="-116" class="g" href="#W" />
    <use y="-116" class="N" href="#X" />
    <use y="-74" class="B" href="#d" />
    <use y="-116" class="G" href="#Y" />
    <use x="-94" y="-127" class="I" href="#S" />
    <use y="-127" class="E" href="#S" />
    <use x="-21" y="-127" class="g" href="#S" />
    <use x="-42" y="-127" class="E" href="#S" />
    <use x="-53" y="-127" class="D" href="#S" />
    <use x="-63" y="-127" class="G" href="#S" />
    <use x="-73" y="-127" class="M" href="#S" />
    <use x="-84" y="-127" class="C" href="#S" />
    <use x="-105" y="-127" class="O" href="#S" />
    <use y="-95" class="F" href="#b" />
    <use y="-127" class="E" href="#V" />
    <use y="-127" class="B" href="#W" />
    <use y="-85" class="C" href="#d" />
    <use y="-127" class="B" href="#Y" />
    <use y="-137" class="D" href="#S" />
    <use x="-21" y="-137" class="B" href="#S" />
    <use x="-42" y="-137" class="I" href="#S" />
    <use x="-63" y="-137" class="V" href="#S" />
    <use x="-84" y="-137" class="I" href="#S" />
    <use x="-105" y="-137" class="H" href="#S" />
    <use y="-126" fill="#e4e4e4" href="#Z" />
    <use y="-137" class="P" href="#U" />
    <use y="-105" class="N" href="#b" />
    <use y="-105" class="C" href="#c" />
    <use y="-137" class="L" href="#V" />
    <use y="-95" class="B" href="#d" />
    <use y="-137" class="J" href="#Y" />
    <use y="-126" class="D" href="#a" />
    <use x="-42" y="-148" class="C" href="#S" />
    <use x="-53" y="-148" fill="#e8e8e7" href="#S" />
    <use x="-63" y="-148" class="C" href="#S" />
    <use x="-73" y="-148" class="D" href="#S" />
    <use x="-84" y="-148" class="U" href="#S" />
    <use x="-94" y="-148" class="B" href="#S" />
    <use y="-137" class="E" href="#Z" />
    <use y="-148" class="D" href="#U" />
    <use y="-116" class="F" href="#b" />
    <use y="-116" class="B" href="#c" />
    <use y="-148" class="C" href="#V" />
    <use y="-148" class="B" href="#W" />
    <use y="-148" class="E" href="#X" />
    <use y="-137" class="C" href="#a" />
    <use x="42" y="-158" class="D" href="#T" />
    <use x="-42" y="-158" class="M" href="#S" />
    <use x="-63" y="-158" class="I" href="#S" />
    <use x="-73" y="-158" class="F" href="#S" />
    <use x="-84" y="-158" class="V" href="#S" />
    <use x="-94" y="-158" class="J" href="#S" />
    <use y="-147" class="B" href="#Z" />
    <use y="-158" class="U" href="#U" />
    <use y="-126" class="H" href="#b" />
    <use y="-158" class="B" href="#V" />
    <use y="-158" class="Y" href="#W" />
    <use y="-147" fill="#e5e4e4" href="#a" />
    <use y="-169" class="F" href="#S" />
    <use x="-11" y="-169" class="D" href="#S" />
    <use x="-21" y="-169" class="J" href="#S" />
    <use x="-42" y="-169" class="F" href="#S" />
    <use x="-53" y="-169" class="D" href="#S" />
    <use x="-63" y="-169" class="F" href="#S" />
    <use x="-73" y="-169" class="H" href="#S" />
    <use x="-84" y="-169" class="F" href="#S" />
    <use x="-94" y="-169" class="Z" href="#S" />
    <use y="-158" class="F" href="#Z" />
    <use y="-169" class="M" href="#U" />
    <use y="-137" class="F" href="#b" />
    <use y="-137" class="L" href="#c" />
    <use y="-169" class="F" href="#V" />
    <use y="-169" class="C" href="#X" />
    <use y="-127" class="Q" href="#d" />
    <use y="-158" class="B" href="#a" />
    <use y="-179" class="D" href="#S" />
    <use x="-21" y="-179" class="B" href="#S" />
    <use x="-42" y="-179" class="D" href="#S" />
    <use x="-63" y="-179" class="H" href="#S" />
    <use x="-73" y="-179" class="F" href="#S" />
    <use x="-84" y="-179" fill="#e7e6e6" href="#S" />
    <use y="-168" class="B" href="#Z" />
    <use y="-179" class="C" href="#U" />
    <use y="-147" class="e" href="#b" />
    <use y="-179" class="D" href="#V" />
    <use y="-179" class="E" href="#W" />
    <use y="-137" class="G" href="#d" />
    <use y="-179" class="B" href="#Y" />
    <use x="-42" y="-190" class="C" href="#S" />
    <use x="-53" y="-190" class="B" href="#S" />
    <use x="-63" y="-190" class="C" href="#S" />
    <use x="-73" y="-190" class="W" href="#S" />
    <use x="-84" y="-190" class="E" href="#S" />
    <use y="-190" class="R" href="#U" />
    <use y="-158" class="E" href="#b" />
    <use y="-158" class="B" href="#c" />
    <use y="-190" class="C" href="#V" />
    <use y="-190" class="D" href="#W" />
    <use y="-190" class="P" href="#X" />
    <use y="-148" class="B" href="#d" />
    <use y="-190" class="F" href="#Y" />
    <use y="-179" class="B" href="#a" />
    <use x="42" y="-200" class="D" href="#T" />
    <use x="-42" y="-200" class="H" href="#S" />
    <use x="-21" y="-200" class="D" href="#T" />
    <use y="-200" class="E" href="#U" />
    <use y="-168" class="H" href="#b" />
    <use y="-168" class="E" href="#c" />
    <use y="-200" class="D" href="#V" />
    <use y="-200" class="F" href="#W" />
    <use y="-200" class="L" href="#X" />
    <use y="-158" class="E" href="#d" />
    <use y="-200" class="B" href="#Y" />
    <path d="M0 233h10v10H0v-10Zm600-11h10v10h-10v-10Z" class="E" />
    <use x="-42" y="-211" class="P" href="#S" />
    <use x="-63" y="-211" class="O" href="#S" />
    <use x="-73" y="-211" class="H" href="#S" />
    <use y="-211" class="D" href="#U" />
    <use y="-179" class="P" href="#b" />
    <use y="-179" class="H" href="#c" />
    <use y="-211" class="E" href="#V" />
    <use y="-211" class="L" href="#W" />
    <use y="-211" class="F" href="#X" />
    <use y="-211" class="E" href="#Y" />
    <use y="-200" class="D" href="#a" />
    <use y="-222" class="C" href="#U" />
    <use y="-222" class="B" href="#V" />
    <use y="-222" class="D" href="#X" />
    <use y="-180" class="J" href="#d" />
    <path d="M0 211h10v10H0v-10Zm600-10h10v10h-10v-10Z" class="E" />
    <use x="-11" y="-232" class="D" href="#S" />
    <use x="-21" y="-232" class="C" href="#S" />
    <use x="-42" y="-232" class="P" href="#S" />
    <use x="-53" y="-232" class="B" href="#S" />
    <use x="-63" y="-232" class="C" href="#S" />
    <use x="-73" y="-232" class="W" href="#S" />
    <use x="-84" y="-232" class="O" href="#S" />
    <use y="-200" class="E" href="#b" />
    <use y="-200" class="e" href="#c" />
    <use y="-232" class="E" href="#V" />
    <use y="-232" class="D" href="#W" />
    <use y="-232" class="C" href="#X" />
    <use y="-190" class="S" href="#d" />
    <use y="-232" class="F" href="#Y" />
    <path d="M0 201h10v10H0v-10Zm558-11h10v10h-10v-10Z" class="B" />
    <use x="-84" y="-243" class="H" href="#S" />
    <path d="M11 190h10v10H11v-10Zm568 0h10v10h-10v-10Z" class="B" />
    <use x="-63" y="-243" class="R" href="#S" />
    <use y="-243" class="F" href="#U" />
    <use y="-211" class="H" href="#b" />
    <use y="-211" class="i" href="#c" />
    <use y="-243" class="B" href="#V" />
    <use y="-243" class="C" href="#W" />
    <use y="-243" class="H" href="#X" />
    <use y="-201" class="C" href="#d" />
    <use y="-232" class="O" href="#a" />
    <use y="-253" class="E" href="#S" />
    <use x="-42" y="-253" class="P" href="#S" />
    <use x="-53" y="-253" class="B" href="#S" />
    <use x="-63" y="-253" class="C" href="#S" />
    <use x="-73" y="-253" fill="#e4e6e5" href="#S" />
    <use x="-84" y="-253" class="E" href="#S" />
    <use x="-94" y="-253" class="B" href="#S" />
    <use y="-253" class="H" href="#U" />
    <use y="-221" class="E" href="#b" />
    <use y="-221" class="D" href="#c" />
    <use y="-253" class="F" href="#V" />
    <use y="-253" fill="#e5e7e6" href="#W" />
    <use y="-253" class="C" href="#X" />
    <use y="-211" class="S" href="#d" />
    <use y="-253" class="F" href="#Y" />
    <use x="-21" y="-264" class="L" href="#S" />
    <use x="-32" y="-264" class="U" href="#S" />
    <use x="-42" y="-264" class="B" href="#S" />
    <use x="-63" y="-264" class="c" href="#S" />
    <use x="-73" y="-264" class="F" href="#S" />
    <use x="-84" y="-264" class="b" href="#S" />
    <use y="-232" class="Q" href="#b" />
    <use y="-232" class="P" href="#c" />
    <use y="-264" class="H" href="#V" />
    <use y="-264" class="G" href="#W" />
    <use y="-264" class="I" href="#X" />
    <use x="42" y="-274" class="O" href="#T" />
    <use x="-42" y="-274" class="C" href="#S" />
    <use x="-73" y="-274" class="R" href="#S" />
    <use x="-84" y="-274" class="J" href="#S" />
    <use y="-274" class="D" href="#U" />
    <use y="-242" class="P" href="#b" />
    <use y="-242" class="D" href="#c" />
    <use y="-274" class="P" href="#V" />
    <use y="-274" class="D" href="#W" />
    <use y="-274" class="C" href="#X" />
    <use y="-232" class="D" href="#d" />
    <use y="-274" class="E" href="#Y" />
    <use y="-263" class="D" href="#a" />
    <use y="-295" class="E" href="#S" />
    <use x="-21" y="-295" class="J" href="#S" />
    <use x="-31" y="-295" class="L" href="#S" />
    <use x="-42" y="-295" class="E" href="#S" />
    <use x="-63" y="-295" class="G" href="#S" />
    <use x="-84" y="-295" class="P" href="#S" />
    <use y="-284" class="E" href="#Z" />
    <use y="-295" class="H" href="#U" />
    <use y="-263" class="U" href="#b" />
    <use y="-295" class="F" href="#V" />
    <use y="-295" fill="#e4e6e5" href="#W" />
    <use y="-295" class="C" href="#X" />
    <use y="-253" class="B" href="#d" />
    <path d="M11 138h10v10H11v-10Zm495-11h10v10h-10v-10Z" class="C" />
    <use y="-295" class="H" href="#Z" />
    <use y="-306" class="B" href="#V" />
    <use y="-306" class="I" href="#X" />
    <use y="-295" class="h" href="#a" />
    <use x="-21" y="-316" class="E" href="#S" />
    <use x="-32" y="-316" class="N" href="#S" />
    <use x="-73" y="-316" class="I" href="#S" />
    <use x="-84" y="-316" class="G" href="#S" />
    <use x="-94" y="-316" class="T" href="#S" />
    <use x="-105" y="-316" class="F" href="#S" />
    <use x="-115" y="-316" class="k" href="#S" />
    <use x="-484" y="-316" class="P" href="#S" />
    <use x="-495" y="-316" class="D" href="#S" />
    <use y="-305" fill="#fcfdfb" href="#Z" />
    <use y="-284" class="E" href="#b" />
    <use y="-284" class="c" href="#c" />
    <use y="-316" class="C" href="#V" />
    <use y="-316" fill="#e9e8e8" href="#W" />
    <use y="-316" class="J" href="#X" />
    <use y="-316" class="F" href="#Y" />
    <use y="-305" class="D" href="#a" />
    <use y="-327" class="B" href="#S" />
    <use x="-21" y="-327" class="k" href="#S" />
    <use x="-42" y="-327" class="T" href="#S" />
    <use x="-63" y="-327" fill="#e4e4e5" href="#S" />
    <use x="-73" y="-327" class="C" href="#S" />
    <use x="-84" y="-327" class="N" href="#S" />
    <use x="-94" y="-327" class="J" href="#S" />
    <use x="-105" y="-327" class="D" href="#S" />
    <use x="-115" y="-327" class="E" href="#S" />
    <use x="-484" y="-327" class="D" href="#S" />
    <use x="-495" y="-327" class="U" href="#S" />
    <use y="-316" class="b" href="#Z" />
    <path d="M74 106h10v10H74v-10Zm-21 0h10v10H53v-10Z" class="D" />
    <path d="M42 106h10v10H42v-10Zm-21 0h10v10H21v-10Z" class="J" />
    <use y="-327" class="B" href="#Y" />
    <use y="-316" class="h" href="#a" />
    <use class="E" href="#e" />
    <use x="-21" class="G" href="#e" />
    <use x="-42" class="E" href="#e" />
    <use x="-53" class="d" href="#e" />
    <use x="-63" fill="#fcfcfb" href="#e" />
    <use x="-73" class="H" href="#e" />
    <use x="-84" class="F" href="#e" />
    <use x="-94" class="L" href="#e" />
    <use x="-115" class="B" href="#e" />
    <use x="-126" class="C" href="#e" />
    <use x="-484" class="F" href="#e" />
    <path d="M95 96h10v10H95V96Z" class="E" />
    <path d="M84 96h10v10H84V96Z" class="L" />
    <path d="M74 96h10v10H74V96Z" class="U" />
    <path d="M53 96h10v10H53V96Z" class="E" />
    <path fill="#e4e4e3" d="M42 96h10v10H42V96Z" />
    <path d="M32 96h10v10H32V96Z" class="C" />
    <path d="M21 96h10v10H21V96Z" class="N" />
    <path d="M11 96h10v10H11V96Z" class="J" />
    <path d="M0 96h10v10H0V96Zm600-11h10v10h-10V85Z" class="I" />
    <use class="C" href="#f" />
    <use x="-10" class="N" href="#f" />
    <use x="-20" class="C" href="#f" />
    <use x="-31" fill="#e5e5e4" href="#f" />
    <use x="-42" class="C" href="#f" />
    <use x="-52" class="M" href="#f" />
    <use x="-62" class="J" href="#f" />
    <use x="-73" fill="#e4e5e5" href="#f" />
    <use x="-94" class="B" href="#f" />
    <use x="-452" class="L" href="#f" />
    <use x="-473" class="B" href="#f" />
    <path d="M95 85h10v10H95V85Z" class="L" />
    <path d="M84 85h10v10H84V85Z" class="E" />
    <path d="M74 85h10v10H74V85Z" class="D" />
    <path d="M53 85h10v10H53V85Z" class="H" />
    <path d="M42 85h10v10H42V85Z" class="O" />
    <path d="M32 85h10v10H32V85Z" class="I" />
    <path d="M11 85h10v10H11V85Z" class="B" />
    <use class="E" href="#g" />
    <use x="-21" class="C" href="#g" />
    <use x="-31" class="N" href="#g" />
    <use x="-42" class="C" href="#g" />
    <use x="-52" class="L" href="#g" />
    <use x="-63" class="C" href="#g" />
    <use x="-73" class="D" href="#g" />
    <use x="-84" class="C" href="#g" />
    <use x="-94" class="B" href="#g" />
    <use x="-105" class="F" href="#g" />
    <use x="-126" class="E" href="#g" />
    <use x="-452" class="D" href="#g" />
    <path d="M137 75h10v10h-10V75Zm-21 0h10v10h-10V75Z" class="F" />
    <use x="-494" class="D" href="#g" />
    <path d="M74 75h10v10H74V75Z" class="E" />
    <path d="M53 75h10v10H53V75Z" class="C" />
    <path d="M42 75h10v10H42V75Z" class="B" />
    <path d="M32 75h10v10H32V75Z" class="J" />
    <path d="M21 75h10v10H21V75Z" class="I" />
    <path d="M11 75h10v10H11V75Z" class="O" />
    <use fill="#e4e3e3" href="#h" />
    <use x="-421" class="H" href="#h" />
    <use x="42" class="I" href="#h" />
    <path d="M558 64h10v10h-10V64Zm-42 0h10v10h-10V64Z" class="B" />
    <use x="-31" class="J" href="#h" />
    <use x="-42" class="D" href="#h" />
    <use x="-63" class="I" href="#h" />
    <use x="-389" class="U" href="#h" />
    <use x="-400" class="B" href="#h" />
    <path d="M95 64h10v10H95V64Z" class="W" />
    <path d="M74 64h10v10H74V64Z" class="I" />
    <path d="M53 64h10v10H53V64Z" class="D" />
    <path d="M42 64h10v10H42V64Z" class="a" />
    <path d="M32 64h10v10H32V64Z" class="I" />
    <path d="M21 64h10v10H21V64Zm579-10h10v10h-10V54Z" class="E" />
    <use class="h" href="#i" />
    <use x="-21" class="C" href="#i" />
    <use x="-31" class="H" href="#i" />
    <path d="M527 54h10v10h-10V54Zm-42 0h10v10h-10V54Z" class="Q" />
    <use x="-105" class="E" href="#i" />
    <use x="-126" class="P" href="#i" />
    <use x="-147" class="F" href="#i" />
    <use x="-431" class="Z" href="#i" />
    <use x="-442" class="F" href="#i" />
    <path d="M116 54h10v10h-10V54Zm-21 0h10v10H95V54Z" class="O" />
    <path d="M74 54h10v10H74V54Z" class="G" />
    <path d="M53 54h10v10H53V54Z" class="O" />
    <path d="M42 54h10v10H42V54Z" class="c" />
    <path d="M32 54h10v10H32V54Z" class="C" />
    <path d="M11 54h10v10H11V54Z" class="F" />
    <use class="H" href="#j" />
    <use x="-21" class="I" href="#j" />
    <path d="M53 43h10v10H53V43Z" class="L" />
    <use x="400" class="H" href="#j" />
    <use x="390" class="J" href="#j" />
    <use x="379" class="L" href="#j" />
    <use x="369" class="F" href="#j" />
    <use x="358" class="I" href="#j" />
    <use x="348" class="C" href="#j" />
    <use x="337" class="H" href="#j" />
    <use x="-32" class="C" href="#j" />
    <path d="M84 43h10v10H84V43Z" class="G" />
    <path d="M74 43h10v10H74V43Z" class="B" />
    <path d="M42 43h10v10H42V43Z" class="F" />
    <path d="M32 43h10v10H32V43Z" class="H" />
    <use class="E" href="#k" />
    <use x="-21" class="J" href="#k" />
    <use x="-42" class="E" href="#k" />
    <use x="-63" class="K" href="#k" />
    <use x="-73" class="I" href="#k" />
    <use x="-84" class="E" href="#k" />
    <use x="-94" class="k" href="#k" />
    <use x="-105" class="F" href="#k" />
    <use x="-126" class="C" href="#k" />
    <use x="-136" class="D" href="#k" />
    <use x="-178" class="Z" href="#k" />
    <use x="-189" class="C" href="#k" />
    <use x="-399" class="D" href="#k" />
    <use x="-420" class="M" href="#k" />
    <use x="-463" class="E" href="#k" />
    <path d="M74 33h10v10H74V33Z" class="O" />
    <path d="M53 33h10v10H53V33Z" class="F" />
    <path d="M42 33h10v10H42V33Z" class="D" />
    <path d="M32 33h10v10H32V33Z" class="K" />
    <path d="M21 33h10v10H21V33Z" class="Q" />
    <path d="M11 33h10v10H11V33Z" class="E" />
    <path d="M0 33h10v10H0V33Zm579-11h10v10h-10V22Z" class="B" />
    <path d="M558 22h10v10h-10V22Zm-21 0h10v10h-10V22Z" class="D" />
    <use class="C" href="#l" />
    <use x="-11" class="I" href="#l" />
    <use x="-21" class="C" href="#l" />
    <use x="-32" class="D" href="#l" />
    <use x="-42" class="C" href="#l" />
    <use x="-53" class="I" href="#l" />
    <use x="-63" class="C" href="#l" />
    <use x="-74" class="I" href="#l" />
    <use x="-95" class="D" href="#l" />
    <use x="-126" class="j" href="#l" />
    <use x="-357" class="D" href="#l" />
    <path d="M63 22h10v10H63V22Z" class="P" />
    <path d="M53 22h10v10H53V22Z" class="B" />
    <path d="M42 22h10v10H42V22Z" class="K" />
    <path d="M21 22h10v10H21V22Z" class="E" />
    <path d="M11 22h10v10H11V22Z" class="D" />
    <path d="M0 22h10v10H0V22Z" class="J" />
    <use class="O" href="#m" />
    <use x="-21" class="E" href="#m" />
    <use x="-42" class="G" href="#m" />
    <use x="-63" class="E" href="#m" />
    <use x="-73" class="L" href="#m" />
    <use x="-84" class="J" href="#m" />
    <use x="-94" class="B" href="#m" />
    <use x="-105" class="O" href="#m" />
    <use x="-115" class="I" href="#m" />
    <use x="-126" class="O" href="#m" />
    <use x="-136" class="Q" href="#m" />
    <use x="-147" class="C" href="#m" />
    <use x="-157" class="B" href="#m" />
    <use x="-168" class="F" href="#m" />
    <use x="-178" class="c" href="#m" />
    <use x="-189" class="E" href="#m" />
    <use x="-210" fill="#fdfefc" href="#m" />
    <use x="-231" class="P" href="#m" />
    <use x="-242" class="I" href="#m" />
    <use x="-252" class="E" href="#m" />
    <use x="-294" class="L" href="#m" />
    <use x="-315" class="D" href="#m" />
    <use x="-326" class="J" href="#m" />
    <use x="-336" class="Q" href="#m" />
    <use x="-347" class="F" href="#m" />
    <use x="-357" class="Q" href="#m" />
    <use x="-368" class="E" href="#m" />
    <use x="-378" class="I" href="#m" />
    <use x="-389" class="U" href="#m" />
    <use x="-399" class="d" href="#m" />
    <use x="-409" class="j" href="#m" />
    <use x="-420" class="Q" href="#m" />
    <path d="M170 12h10v10h-10V12Zm-22 0h10v10h-10V12Z" class="F" />
    <use x="-484" class="L" href="#m" />
    <path d="M95 12h10v10H95V12Zm-32 0h10v10H63V12Z" class="B" />
    <path d="M53 12h10v10H53V12Z" class="C" />
    <path d="M42 12h10v10H42V12Z" class="I" />
    <path d="M32 12h10v10H32V12Z" class="E" />
    <path d="M21 12h10v10H21V12Z" class="d" />
    <path d="M11 12h10v10H11V12Z" class="G" />
    <use class="L" href="#n" />
    <use x="252" class="B" href="#n" />
    <use x="231" class="I" href="#n" />
    <use x="220" class="F" href="#n" />
    <use x="210" class="B" href="#n" />
    <use x="189" fill="#e4e5e5" href="#n" />
    <use x="168" class="B" href="#n" />
    <use x="158" class="C" href="#n" />
    <use x="147" class="I" href="#n" />
    <use x="137" class="F" href="#n" />
    <use x="126" class="L" href="#n" />
    <use x="105" class="B" href="#n" />
    <use x="95" class="G" href="#n" />
    <use x="84" class="H" href="#n" />
    <use x="63" class="I" href="#n" />
    <use x="42" class="H" href="#n" />
    <use x="21" class="I" href="#n" />
    <use x="10" class="F" href="#n" />
    <use x="-21" class="C" href="#n" />
    <use x="-32" class="D" href="#n" />
    <use x="-42" class="P" href="#n" />
    <use x="-53" class="D" href="#n" />
    <use x="-63" class="E" href="#n" />
    <use x="-74" class="H" href="#n" />
    <use x="-84" class="F" href="#n" />
    <use x="-95" class="B" href="#n" />
    <use x="-105" class="F" href="#n" />
    <use x="-116" class="L" href="#n" />
    <use x="-126" class="P" href="#n" />
    <use x="-147" class="F" href="#n" />
    <use x="-157" class="Q" href="#n" />
    <use x="-168" class="E" href="#n" />
    <use x="-200" class="D" href="#n" />
    <use x="-211" class="E" href="#n" />
    <use x="-232" class="F" href="#n" />
    <use x="-242" class="B" href="#n" />
    <path fill="#fcfefd" d="M95 1h10v10H95V1Z" />
    <path d="M85 1h10v10H85V1Z" class="M" />
    <path d="M53 1h10v10H53V1Z" class="D" />
    <path d="M42 1h10v10H42V1Z" class="E" />
    <path d="M32 1h10v10H32V1Z" class="D" />
    <path fill="#fbfdfd" d="M21 1h10v10H21V1Z" />
    <path d="M11 1h10v10H11V1Z" class="B" />
    <path d="M24.066 432.902 31 433v10H21v-9c1-1 1-1 3.066-1.098z" class="I" />
    <path d="M211 422h10v10h-9c-1-1-1-1-1.098-3.066L211 422z" class="D" />
    <path d="M130.066 411.902 137 412v10h-10v-9c1-1 1-1 3.066-1.098z" class="J" />
    <path d="M527 370h9c1 1 1 1 1.098 3.066L537 380h-10v-10z" class="N" />
    <path
        d="M466.066 369.902 473 370v10h-10v-9c1-1 1-1 3.066-1.098zm84-74L557 296v10h-10v-9c1-1 1-1 3.066-1.098z"
        class="C" />
    <path d="M95 233h9c1 1 1 1 1.098 3.066L105 243H95v-10z" class="B" />
    <path d="M95 211h9v11h-9v-11Z" class="M" />
    <path d="M42 127h10v10h-9c-1-1-1-1-1.098-3.066L42 127z" class="G" />
    <path d="M548 64h10v9c-1 1-1 1-3.066 1.098L548 74V64z" class="C" />
    <path d="M211 22h10v10h-9c-1-1-1-1-1.098-3.066L211 22z" class="D" />
    <path d="M425.066.902 432 1v10h-10V2c1-1 1-1 3.066-1.098z" class="E" />
    <path d="M527 391h9c1.607 3.215 1.057 6.436 1 10h-10v-10Z" class="L" />
    <path
        d="m551.066.902 2.496.035 2.504.028L558 1l.063 4.438.035 2.496C558 10 558 10 557 11l-4.563.063-2.503-.028L548 11l-.063-4.438-.035-2.496c.133-2.803.361-3.031 3.164-3.164z"
        class="C" />
    <path d="M548 12h9v10h-10c-.125-6.625-.125-6.625 1-10Z" class="H" />
    <path d="M137 12h10v9c-3.473 1.158-6.36 1.069-10 1V12Z" class="S" />
    <path d="M106 296h9v10h-10l1-10Z" class="P" />
    <path
        d="M411 43h10v10c-3.106.976-4.688 1.104-7.813.063C411 51 411 51 410.688 49.016c0-2.008.149-4.015.313-6.016Z"
        class="B" />
    <path d="M106 391h9l1 9c-1 1-1 1-3.285 1.098L105 401l1-10z" class="H" />
    <path d="M106 370h9l1 10h-10v-10Z" class="e" />
    <path d="M106 349h9v10h-10l1-10Z" class="B" />
    <path d="M547 127h10v10h-9l-1-10Z" class="K" />
    <path d="M400 1h10v10h-9l-1-10Z" class="G" />
    <path d="M212 412h9v10h-10l1-10Z" class="F" />
    <path d="M42 148v11l-10-1v-9l4.438-.5 2.496-.281L42 148z" class="B" />
    <path
        d="M211 1c7.75-.125 7.75-.125 10 1v9h-9l-1-10Zm0 400c6.625.75 6.625.75 10 3 .188 3.625.188 3.625 0 7h-10v-10Z"
        class="M" />
    <path d="M63 327v10H53v-9l4.438-.5 2.496-.281L63 327z" class="G" />
    <path fill="#e9e9e8" d="M138 349h9v10h-9v-10Z" />
    <path d="M548 233h9v10h-9v-10Z" class="E" />
    <path d="M548 190h9v10h-9v-10Z" class="F" />
    <path d="M506 170h10v9h-10v-9Z" class="J" />
    <path d="M85 127h9v10h-9v-10Z" class="G" />
    <path d="M85 64h9v10h-9V64Z" class="C" />
    <path d="M548 22h9v10h-9V22Z" class="F" />
    <path d="M495 148h10v11h-6a875.282 875.282 0 0 1-2-4.375l-1.125-2.46C495 150 495 150 495 148Z"
        class="D" />
    <path fill="#e4e4e4" d="M547 370h10v9h-9l-1-9Z" />
    <path d="M474 106h10v10c-2.75.375-2.75.375-6 0-3.097-3.586-4-5.21-4-10Z" class="B" />
    <path d="M32 401h8v10h-8v-10Z" class="F" />
    <path d="M32 391h8v10h-8v-10Zm476-148h8v10h-8v-10Z" class="B" />
    <path d="m243 413 10 2v7h-10v-9Z" class="S" />
    <path fill="#f2f3f3"
        d="M453 361v8h21v11h-1v-10l-3.813.563c-8.37.872-16.815-.004-25.187-.563 0-2 0-2 1.715-3.727l2.223-1.898 2.214-1.914C452 361 452 361 453 361Z" />
    <path d="M180 54h10c0 2.125 0 2.125-1 5-3.311 3.103-6.686 5.562-11 7l2-12Z" class="M" />
    <path d="M508 201h8v10h-7l-1-10Z" class="B" />
    <path d="M105 159h9l-3 10h-6v-10Z" class="f" />
    <path fill="#e8e9e9" d="M490 306h5v10h-9c1.11-3.487 2.263-6.775 4-10Z" />
    <path d="M509 222h7v10h-7v-10Z" class="B" />
    <path fill="#f1f2f1" d="M557 127h1v10l21-1v2h-10v10h-1v-10h-10v10h-1v-10h-10v-6h1v5h9v-10Z" />
    <path fill="#498cc7"
        d="M256 252.875c3 .125 3 .125 4 1.125v6c-1 1-1 1-3.938 1.188C253 261 253 261 251 259c.725-5.947.725-5.947 5-6.125z" />
    <path d="M422 54h10v10a298.11 298.11 0 0 1-4.438-2.75l-2.496-1.547C423 58 423 58 422 54Z"
        class="L" />
    <path fill="#fbf6f1"
        d="M398.945 281.805 405 282c-.75 4.75-.75 4.75-3 7h-6c-.625-2.375-.625-2.375-1-5 2-2 2-2 3.945-2.195z" />
    <path fill="#f08d4a"
        d="m397.688 264.875 2.449.055L402 265l-2 1v4c-3.62 1.316-6.096 2-10 2-.188-2.375-.188-2.375 0-5 3.204-2.136 4.02-2.231 7.688-2.125Z" />
    <path d="M465 96h9v10h-3c-1.605-1.68-1.605-1.68-3.188-3.875l-1.605-2.18C465 98 465 98 465 96Z"
        class="D" />
    <path d="M253 22h10v5l-10 2v-7Z" class="B" />
    <path fill="#f6f6f6" d="M463 433h6l-2 3a128.213 128.213 0 0 0-1 7l4 1h-17v-1h10v-10Z" />
    <path d="M348 22h10v6l-9-1-1-5Z" class="B" />
    <path d="M105 264h4l2 10h-6v-10Z" class="H" />
    <path d="M126 117h7c-1.333 3.588-2.83 6.836-5 10h-2v-10Z" class="b" />
    <path d="M358 417v5h-10v-4c3.38-1.04 6.478-1.08 10-1Z" class="Z" />
    <path d="M222 33h10v3l-10 4v-7Zm-21 361 10 5v2h-10v-7Z" class="B" />
    <path d="M442 372v8h-10c7.784-8 7.784-8 10-8Z" class="T" />
    <path fill="#eceded" d="M126 369h6c-.563 3.941-1.68 6.75-4 10h-2v-10Z" />
    <path d="M390 405v6h-11c1-3 1-3 2.777-3.95l2.16-.738 2.153-.761C388 405 388 405 390 405z"
        class="T" />
    <path d="M116 296h3l3 10h-6v-10Z" class="B" />
    <path d="M379 33h11v6c-3.724-1.213-7.378-2.509-11-4v-2Z" class="D" />
    <path d="M502 275h3v10h-5c.537-3.377 1.11-6.697 2-10Z" class="S" />
    <path d="M455 85h8v9c-2.932-2.853-5.643-5.65-8-9Z" class="I" />
    <path d="M452 361h1v8h-8l2.938-3.438 1.652-1.933A49.663 49.663 0 0 1 452 361Z" class="T" />
    <path d="M445 75h8v8a707.381 707.381 0 0 1-3.438-2.875l-1.933-1.617C446 77 446 77 445 75Z"
        class="B" />
    <path d="m264 418 10 2v2h-10v-4Z" class="D" />
    <path fill="#d9e6ed" d="m295 175 1 3h5l1 6-5 4 3-9h-5v-4Z" />
    <path fill="#efefef"
        d="M115 137h8v1h-7v10h2l-2 4c-2.147-3.442-2.099-5.772-1.625-9.75l.336-2.984L115 137Z" />
    <path d="M105 180h3l-1 10h-2v-10Z" class="T" />
    <path d="M464 433h5l-2 3-1 6h-2v-9z" class="K" />
    <path fill="#ededed" d="m232 409 6 1-1 2h-14v-1h9v-2Z" />
    <path d="M274 22h10v2l-10 1v-3Z" class="T" />
    <path d="M491 138h4v8c-2.154-2.622-3.4-4.644-4-8Z" class="M" />
    <path fill="#5e99c4" d="m314 265 3 1-1 5-2 1v-7z" />
    <defs>
        <path id="B" d="M589 433h11v10h-11v-10Z" />
        <path id="C" d="M600 422h10v11h-10v-11Z" />
        <path id="D" d="M222 422h10v11h-10v-11Zm-21 0h10v11h-10v-11Z" />
        <path id="E" d="M63 422h11v10H63v-10Z" />
        <path id="F" d="M42 411h10v11H42v-11Z" />
        <path id="G" d="M0 401h11v10H0v-10Z" />
        <path id="H" d="M568 380h11v10h-11v-10Zm-21 0h11v10h-11v-10Z" />
        <path id="I" d="M579 369h10v11h-10v-11Zm-42 0h10v11h-10v-11Z" />
        <path id="J" d="M11 369h10v11H11v-11Z" />
        <path id="K" d="M95 327h10v11H95v-11Z" />
        <path id="L" d="M558 43h10v11h-10V43Z" />
        <path id="M" d="M159 412h10v10h-11c-.125-7.75-.125-7.75 1-10Z" />
        <path id="N" d="M547 349h10c1.607 3.215 1.057 6.436 1 10h-11v-10Z" />
        <path id="O" d="M411 422h10v10c-3.473 1.158-6.36 1.069-10 1v-11Z" />
        <path id="P" d="M379 412h10c1.158 3.473 1.069 6.36 1 10h-11v-10Z" />
        <path id="Q" d="M21 169h10v10l-10 1v-11Z" />
        <path id="R" d="M443 22h10v10h-10c-.807-3.945-1-6 0-10Z" />
        <path id="S" d="M600 433h10v10h-10v-10Z" />
        <path id="T" d="M558 433h10v10h-10v-10Zm-21 0h10v10h-10v-10Z" />
        <path id="U" d="M84 433h10v10H84v-10Z" />
        <path id="V" d="M53 433h10v10H53v-10Z" />
        <path id="W" d="M42 433h10v10H42v-10Z" />
        <path id="X" d="M32 433h10v10H32v-10Z" />
        <path id="Y" d="M11 433h10v10H11v-10Z" />
        <path id="Z" d="M95 422h10v10H95v-10Z" />
        <path id="a" d="M0 422h10v10H0v-10Z" />
        <path id="b" d="M74 401h10v10H74v-10Z" />
        <path id="c" d="M63 401h10v10H63v-10Z" />
        <path id="d" d="M21 391h10v10H21v-10Z" />
        <path id="e" d="M600 96h10v10h-10V96Z" />
        <path id="f" d="M589 85h10v10h-10V85Z" />
        <path id="g" d="M600 75h10v10h-10V75Z" />
        <path id="h" d="M537 64h10v10h-10V64Z" />
        <path id="i" d="M579 54h10v10h-10V54Z" />
        <path id="j" d="M137 43h10v10h-10V43Z" />
        <path id="k" d="M600 33h10v10h-10V33Z" />
        <path id="l" d="M527 22h10v10h-10V22Z" />
        <path id="m" d="M600 12h10v10h-10V12Z" />
        <path id="n" d="M348 1h10v10h-10V1Z" />
    </defs>
</svg>