<!-- <?xml version="1.0" encoding="UTF-8"?> -->
<svg xmlns="http://www.w3.org/2000/svg" viewBox="0 0 1024 1024" role="img">
<title>QuickChat favicon</title>
<path d="M0 0 C337.92 0 675.84 0 1024 0 C1024 276.21 1024 552.42 1024 837 C686.08 837 348.16 837 0 837 C0 560.79 0 284.58 0 0 Z " fill="#E5EEF2" transform="translate(0,0)"/>
<path d="M0 0 C1.26714844 -0.00177246 2.53429687 -0.00354492 3.83984375 -0.00537109 C27.45451954 0.27531536 50.82980646 7.54892869 68.75 23.375 C69.97589844 24.40560547 69.97589844 24.40560547 71.2265625 25.45703125 C87.88947798 39.82942512 99.95854674 60.20189163 101.75 82.375 C102.88357223 107.10768214 102.88357223 107.10768214 98.75 118.375 C98.4096875 119.41140625 98.069375 120.4478125 97.71875 121.515625 C93.22800203 134.32032529 86.14585274 144.68606562 76.75 154.375 C75.95916016 155.27605469 75.95916016 155.27605469 75.15234375 156.1953125 C61.1930185 171.54700011 37.17836896 181.80971456 16.75 183.375 C11.64537611 183.61536736 6.54675777 183.71572155 1.4375 183.75 C0.3744313 183.75883713 0.3744313 183.75883713 -0.71011353 183.76785278 C-11.23521337 183.81528391 -20.71333393 182.76378275 -30.73046875 179.37109375 C-35.0334584 178.15326649 -37.08624975 178.1744735 -40.98413086 180.3371582 C-43.06806505 181.6119956 -45.09698651 182.95051817 -47.125 184.3125 C-47.86588867 184.79960449 -48.60677734 185.28670898 -49.37011719 185.78857422 C-53.11190679 188.25522437 -56.82483436 190.76211909 -60.5234375 193.29296875 C-61.19391113 193.74873291 -61.86438477 194.20449707 -62.55517578 194.67407227 C-63.82199221 195.53775291 -65.08369878 196.40899202 -66.33935547 197.28881836 C-69.57257664 199.4974144 -72.27788831 201.19188847 -76.25 201.375 C-78.25 199.375 -78.25 199.375 -78.33203125 196.92578125 C-77.60128807 188.14627256 -76.53105985 179.44277233 -75.2668457 170.72387695 C-73.28887467 159.95712725 -73.28887467 159.95712725 -75.75390625 149.78125 C-76.77291016 148.83765625 -76.77291016 148.83765625 -77.8125 147.875 C-81.69483791 144.01331282 -84.69787482 140.00874819 -87.70703125 135.44140625 C-89.25190412 133.13191683 -89.25190412 133.13191683 -92.25 131.375 C-94.29991242 131.07601392 -94.29991242 131.07601392 -96.56616211 131.11962891 C-97.43393784 131.11266998 -98.30171356 131.10571106 -99.19578552 131.09854126 C-100.13019974 131.09953827 -101.06461395 131.10053528 -102.02734375 131.1015625 C-104.00456298 131.08127591 -105.98177648 131.06042517 -107.95898438 131.0390625 C-111.07744171 131.01644182 -114.19567331 130.99998468 -117.31420898 130.99414062 C-120.32316932 130.98463139 -123.33111105 130.95087493 -126.33984375 130.9140625 C-127.27223373 130.91910797 -128.20462372 130.92415344 -129.16526794 130.92935181 C-135.63286033 130.8308577 -135.63286033 130.8308577 -138.83398438 128.46630859 C-140.35479435 126.22022958 -140.81775462 125.0653648 -140.8125 122.375 C-140.83441406 121.715 -140.85632813 121.055 -140.87890625 120.375 C-139.86255895 117.14288932 -138.08488615 116.16592517 -135.25 114.375 C-132.27557871 113.81021245 -129.35638412 113.84087478 -126.3359375 113.87109375 C-125.48448151 113.86167252 -124.63302551 113.85225128 -123.75576782 113.84254456 C-121.04526499 113.81394148 -118.33564146 113.81081547 -115.625 113.8125 C-112.90734652 113.80889505 -110.19032887 113.79941376 -107.47280884 113.77174377 C-105.78455688 113.7549227 -104.09609476 113.75210545 -102.4078064 113.76475525 C-98.19734907 113.84026901 -98.19734907 113.84026901 -94.52554321 112.07069397 C-92.45509408 109.31826028 -93.01255513 106.69922813 -93.25 103.375 C-93.58 102.385 -93.91 101.395 -94.25 100.375 C-97.51480281 99.05425614 -100.92675268 99.24988078 -104.40625 99.234375 C-105.59347656 99.21503906 -106.78070313 99.19570313 -108.00390625 99.17578125 C-110.50113918 99.14192929 -112.99863275 99.12369798 -115.49609375 99.12109375 C-116.68332031 99.09660156 -117.87054688 99.07210937 -119.09375 99.046875 C-120.17849609 99.0375293 -121.26324219 99.02818359 -122.38085938 99.01855469 C-125.25 98.375 -125.25 98.375 -127.59960938 96.02050781 C-129.64365184 92.74399241 -129.96151787 91.16976199 -129.25 87.375 C-127.1898663 84.41125582 -125.56302664 82.62780613 -121.93063354 81.92843628 C-119.00429354 81.76549382 -116.11412152 81.76185986 -113.18359375 81.80859375 C-112.11254898 81.80295914 -111.04150421 81.79732452 -109.93800354 81.79151917 C-106.520723 81.77506726 -103.10473576 81.79062084 -99.6875 81.8125 C-96.26681598 81.82908077 -92.84698162 81.83821386 -89.42628479 81.82276917 C-87.29944095 81.81347167 -85.17241802 81.822711 -83.04576111 81.85240173 C-77.47109399 81.91607497 -77.47109399 81.91607497 -72.59008789 79.53930664 C-70.78669656 76.62674257 -70.82029354 74.7410339 -71.25 71.375 C-72.97226496 68.12650023 -72.97226496 68.12650023 -76.25 67.375 C-78.848411 67.28077793 -81.42489634 67.23800957 -84.0234375 67.234375 C-85.5859521 67.21604869 -87.14845251 67.19647854 -88.7109375 67.17578125 C-91.16886389 67.14681248 -93.62587613 67.12499983 -96.08398438 67.12451172 C-98.46045599 67.1211713 -100.83483095 67.08659653 -103.2109375 67.046875 C-103.94130219 67.0539447 -104.67166687 67.0610144 -105.42416382 67.06829834 C-109.35372346 66.97490247 -111.10203835 66.49240514 -114.21728516 64.02050781 C-116.25 61.375 -116.25 61.375 -116.8125 58.375 C-116.06742149 54.40124793 -115.34751594 53.03769822 -112.25 50.375 C-108.33188891 49.86721968 -104.44107894 50.11846395 -100.5 50.25 C-92.385294 50.4060368 -92.385294 50.4060368 -85.20703125 47.23046875 C-83.26675112 44.37005578 -81.76891987 41.47662639 -80.25 38.375 C-67.57338744 22.04497299 -50.4257786 11.46626167 -31.25 4.375 C-30.13367188 3.95992188 -29.01734375 3.54484375 -27.8671875 3.1171875 C-18.64112191 0.26766832 -9.62230064 0.00793822 0 0 Z " fill="#2A82B7" transform="translate(536.25,320.625)"/>
<path d="M0 0 C12.24810454 7.82083853 19.70510895 21.79030465 23.17822266 35.57470703 C26.03479475 52.01347095 21.98876866 66.04193384 13.79931641 80.14892578 C12.5038046 81.84515829 11.18208187 83.52303672 9.79931641 85.14892578 C11.92444684 89.02092719 14.36730337 91.85195949 17.48681641 94.96142578 C22.44123871 100.37578631 22.44123871 100.37578631 22.61181641 104.52392578 C21.73458556 108.43772494 20.99078075 109.80226082 17.79931641 112.14892578 C14.60966105 113.74375346 12.32651261 113.55057338 8.79931641 113.14892578 C6.30623232 111.52022687 4.41370823 109.47484787 2.42431641 107.27392578 C1.89193359 106.71833984 1.35955078 106.16275391 0.81103516 105.59033203 C-2.98340765 101.58347767 -2.98340765 101.58347767 -4.20068359 99.14892578 C-8.63852048 99.78867465 -12.73222087 100.89456955 -17.01318359 102.21142578 C-31.37299013 106.21601683 -45.71762095 105.42985596 -58.98339844 98.17382812 C-73.47466139 89.57554478 -83.36254307 76.87515716 -87.89208984 60.67626953 C-91.19666474 46.09454394 -89.1795613 30.24621897 -81.15234375 17.48193359 C-74.26954005 7.3139563 -65.7478817 -1.19058345 -54.20068359 -5.85107422 C-52.89550781 -6.40794922 -52.89550781 -6.40794922 -51.56396484 -6.97607422 C-33.99501687 -13.73155755 -15.72423724 -9.21437926 0 0 Z " fill="#F9FBFB" transform="translate(568.20068359375,364.85107421875)"/>
<path d="M0 0 C10.1378557 5.36412332 17.24750978 12.80284239 20.72265625 23.9296875 C21.05354905 26.80875031 21.10339198 29.65844351 21.09765625 32.5546875 C21.0963269 33.75085693 21.0963269 33.75085693 21.0949707 34.97119141 C20.92795093 43.34591887 18.99315436 50.31513686 13.72265625 56.9296875 C10.9246564 55.83047327 9.68715607 54.88502598 7.78515625 52.4921875 C4.80963606 48.79532909 2.37799568 47.16616456 -2.33984375 46.4921875 C-5.32190396 46.73433664 -5.32190396 46.73433664 -7.65234375 48.4296875 C-9.48292069 51.24595971 -9.95725211 53.40485857 -9.8125 56.765625 C-8.79378489 60.8851007 -5.96472991 63.75842295 -3.27734375 66.9296875 C-2.94734375 67.5896875 -2.61734375 68.2496875 -2.27734375 68.9296875 C-9.19933109 72.22587195 -17.81946599 71.97859991 -25.19921875 70.2421875 C-36.0092832 66.21359205 -43.55131162 58.8727591 -48.65234375 48.6171875 C-52.07282241 39.17084431 -52.18452741 27.21801984 -48.171875 17.96166992 C-39.27479264 0.23792425 -18.46632857 -8.67885768 0 0 Z " fill="#2E86BA" transform="translate(550.27734375,378.0703125)"/>
<path d="M0 0 C0.99 0.495 0.99 0.495 2 1 C-2.90217169 5.49808812 -7.8246747 9.89489459 -13.0625 14 C-24.13186617 22.97516176 -34.32488336 33.39796654 -43.109375 44.61328125 C-44.92387814 46.90390402 -46.83110257 49.04098612 -48.8125 51.1875 C-66.40868071 70.90077543 -79.43441426 94.08982842 -91.59643555 117.39477539 C-92.54752053 119.16013073 -93.54864081 120.89926644 -94.59301758 122.61108398 C-96.12956907 125.21999538 -97.11315756 127.89481053 -98.1328125 130.73828125 C-99.06131537 133.15991712 -100.13838757 135.46939538 -101.25 137.8125 C-129.32962651 199.11546839 -135.11677085 275.73038263 -119 341 C-118.67398269 342.34000452 -118.34797405 343.68001114 -118.02197266 345.02001953 C-113.7530975 362.44376888 -109.05046673 379.4654029 -102 396 C-101.69803711 396.72896484 -101.39607422 397.45792969 -101.08496094 398.20898438 C-87.78338148 430.26478643 -69.90720051 459.92676365 -47 486 C-46.42378906 486.67546875 -45.84757812 487.3509375 -45.25390625 488.046875 C-21.06635104 516.27574243 7.00932589 540.02234539 39 559 C39.6305127 559.37576172 40.26102539 559.75152344 40.91064453 560.13867188 C68.64537079 576.53932476 99.39992143 589.42516554 131 596 C131.96228516 596.20520264 132.92457031 596.41040527 133.91601562 596.62182617 C137.12898779 597.30231695 140.34525047 597.96505138 143.5625 598.625 C144.64724609 598.85445312 145.73199219 599.08390625 146.84960938 599.3203125 C152.70947576 600.51576794 158.02850397 601.15621036 164 601 C164.33 601.33 164.66 601.66 165 602 C167.01594582 602.23427778 169.038474 602.41336124 171.0625 602.5625 C172.16722656 602.64628906 173.27195312 602.73007812 174.41015625 602.81640625 C175.26480469 602.87699219 176.11945313 602.93757812 177 603 C176.67 601.02 176.34 599.04 176 597 C191.51 597.33 207.02 597.66 223 598 C223 598.33 223 598.66 223 599 C217.62374766 599.84888195 213.34629602 600.0024305 208 599 C209.00832175 601.60209665 209.00832175 601.60209665 211 604 C214.1640378 604.68958221 214.1640378 604.68958221 217.875 604.4375 C218.56392334 604.41937256 219.25284668 604.40124512 219.96264648 604.38256836 C230.55525074 604.00981152 241.23965118 603.02257377 251.71875 601.4375 C255.00376791 600.99949761 258.1261928 600.9002943 261.4375 600.9375 C262.48808594 600.94652344 263.53867187 600.95554687 264.62109375 600.96484375 C265.40613281 600.97644531 266.19117188 600.98804688 267 601 C267 601.33 267 601.66 267 602 C263.10873141 602.5566692 259.21670716 603.10771263 255.32397461 603.65405273 C253.3659749 603.92996458 251.40856351 604.21004124 249.45117188 604.49023438 C235.03647711 606.50755807 220.84624553 607.23805729 206.3125 607.25 C205.45550507 607.25100708 204.59851013 607.25201416 203.71554565 607.25305176 C188.95729989 607.24138882 174.59742139 606.26041709 160 604 C158.50073975 603.7831958 158.50073975 603.7831958 156.97119141 603.56201172 C99.96929147 595.30921139 46.09821135 571.86880996 1 536 C0.07574219 535.26652344 -0.84851563 534.53304687 -1.80078125 533.77734375 C-11.90628683 525.62864423 -21.34211076 516.84464298 -30.51391602 507.67138672 C-32.05923066 506.1282647 -33.61240446 504.59335694 -35.16601562 503.05859375 C-41.56280262 496.69730318 -47.38335125 490.07127029 -53 483 C-54.43373416 481.28850493 -55.87081108 479.57979972 -57.3125 477.875 C-105.05298236 419.27687321 -129.57073994 342.96551794 -129.3125 267.875 C-129.31100952 266.79938812 -129.30951904 265.72377625 -129.3079834 264.61557007 C-129.26797799 248.53892033 -128.67963576 232.88146195 -126 217 C-125.71855418 215.17190514 -125.43730445 213.34378007 -125.15625 211.515625 C-118.44623851 169.93658926 -103.33075522 130.23594961 -82 94 C-81.31284912 92.83210938 -81.31284912 92.83210938 -80.61181641 91.640625 C-69.58365114 73.11852053 -56.36302864 56.05041927 -42 40 C-41.54318848 39.48679199 -41.08637695 38.97358398 -40.61572266 38.44482422 C-31.23389045 27.93890151 -21.59779615 17.82696631 -10.55859375 9.046875 C-6.93516625 6.148133 -3.4636244 3.08649624 0 0 Z " fill="#AAB9C3" transform="translate(305,156)"/>
<path d="M0 0 C0.99 0.495 0.99 0.495 2 1 C-2.90217169 5.49808812 -7.8246747 9.89489459 -13.0625 14 C-24.13186617 22.97516176 -34.32488336 33.39796654 -43.109375 44.61328125 C-44.92387814 46.90390402 -46.83110257 49.04098612 -48.8125 51.1875 C-66.40868071 70.90077543 -79.43441426 94.08982842 -91.59643555 117.39477539 C-92.54752053 119.16013073 -93.54864081 120.89926644 -94.59301758 122.61108398 C-96.12956907 125.21999538 -97.11315756 127.89481053 -98.1328125 130.73828125 C-99.06131537 133.15991712 -100.13838757 135.46939538 -101.25 137.8125 C-129.40580494 199.28177986 -134.89088976 275.55753357 -119 341 C-118.79665039 341.83934082 -118.59330078 342.67868164 -118.38378906 343.54345703 C-117.52104671 347.06738413 -116.63291872 350.57994946 -115.69921875 354.0859375 C-115 357 -115 357 -115 360 C-115.66 360 -116.32 360 -117 360 C-120.20854148 348.00172666 -123.19661064 336.00553493 -125.25 323.75 C-125.40049805 322.86763672 -125.55099609 321.98527344 -125.70605469 321.07617188 C-128.53827027 303.37005107 -129.3740939 285.78515687 -129.3125 267.875 C-129.31100952 266.79938812 -129.30951904 265.72377625 -129.3079834 264.61557007 C-129.26797799 248.53892033 -128.67963576 232.88146195 -126 217 C-125.71855418 215.17190514 -125.43730445 213.34378007 -125.15625 211.515625 C-118.44623851 169.93658926 -103.33075522 130.23594961 -82 94 C-81.31284912 92.83210938 -81.31284912 92.83210938 -80.61181641 91.640625 C-69.58365114 73.11852053 -56.36302864 56.05041927 -42 40 C-41.54318848 39.48679199 -41.08637695 38.97358398 -40.61572266 38.44482422 C-31.23389045 27.93890151 -21.59779615 17.82696631 -10.55859375 9.046875 C-6.93516625 6.148133 -3.4636244 3.08649624 0 0 Z " fill="#B9C3CA" transform="translate(305,156)"/>
<path d="M0 0 C6.27 0 12.54 0 19 0 C18.071875 1.69125 17.14375 3.3825 16.1875 5.125 C14.04570161 9.04909871 11.95555913 12.98023957 10 17 C13.3 17 16.6 17 20 17 C18.37628074 20.24743852 17.3488031 21.918501 14.953125 24.42578125 C14.0559375 25.37420898 14.0559375 25.37420898 13.140625 26.34179688 C12.51671875 26.99212891 11.8928125 27.64246094 11.25 28.3125 C6.68944362 33.10011798 2.26391047 37.94478099 -2 43 C-3.34285801 38.97142598 -2.19861924 37.32807796 -0.625 33.4375 C0.06722656 31.70306641 0.06722656 31.70306641 0.7734375 29.93359375 C1.46942608 28.26898412 2.19311397 26.61377206 3 25 C-0.3 25 -3.6 25 -7 25 C-6.28577145 19.48507072 -4.64708305 14.39257841 -2.9375 9.125 C-2.65583984 8.24585938 -2.37417969 7.36671875 -2.08398438 6.4609375 C-1.39303079 4.30609921 -0.69702247 2.15288286 0 0 Z " fill="#F4F8F9" transform="translate(528,388)"/>
<path d="M0 0 C0.33 0 0.66 0 1 0 C1.31936576 1.74876006 1.62997349 3.49911917 1.9375 5.25 C2.19853516 6.71179688 2.19853516 6.71179688 2.46484375 8.203125 C7.99489887 47.43826058 4.63116317 89.69123022 -5 128 C-5.45767026 129.91260762 -5.9146881 131.82537146 -6.37109375 133.73828125 C-17.36158584 178.78078613 -38.90621535 221.94463203 -68 258 C-69.19882812 259.5159375 -69.19882812 259.5159375 -70.421875 261.0625 C-74.39358245 266.02009228 -78.54388236 270.79799496 -82.8125 275.5 C-83.26898926 276.0050708 -83.72547852 276.5101416 -84.19580078 277.03051758 C-86.6203855 279.66482754 -89.05092922 281.9652099 -92 284 C-90.68268423 281.05354008 -89.3003931 279.12163996 -86.9375 276.9375 C-82.19012654 272.30686523 -78.11211359 267.19131082 -74 262 C-73.45327637 261.31373535 -72.90655273 260.6274707 -72.34326172 259.92041016 C-62.87158277 248.01839109 -62.87158277 248.01839109 -54.44140625 235.37109375 C-53.01363883 233.02243569 -51.49389708 230.7649359 -49.9375 228.5 C-47.84170138 225.37473801 -45.96319511 222.19763917 -44.17578125 218.88671875 C-43.65250244 217.91847168 -43.12922363 216.95022461 -42.59008789 215.95263672 C-41.80299438 214.49108154 -41.80299438 214.49108154 -41 213 C-40.52232178 212.12230957 -40.04464355 211.24461914 -39.55249023 210.34033203 C-24.00645533 181.68917519 -12.78504657 151.89957012 -6 120 C-5.72978027 118.76515869 -5.72978027 118.76515869 -5.45410156 117.50537109 C-4.12407662 111.36392679 -2.99433865 105.20445936 -2 99 C-1.84756836 98.05592285 -1.69513672 97.1118457 -1.53808594 96.13916016 C1.00319571 79.48361124 1.26587021 62.94043953 1.25 46.125 C1.24897278 44.57951477 1.24897278 44.57951477 1.2479248 43.00280762 C1.21648911 28.64583936 0.7592779 14.33622623 0 0 Z " fill="#B2BEC5" transform="translate(844,376)"/>
<path d="M0 0 C1.24072266 -0.02835937 2.48144531 -0.05671875 3.75976562 -0.0859375 C5.54737305 -0.08980469 5.54737305 -0.08980469 7.37109375 -0.09375 C8.46220459 -0.10083984 9.55331543 -0.10792969 10.67749023 -0.11523438 C13.5625 0.5 13.5625 0.5 15.94555664 2.81445312 C17.5625 5.5 17.5625 5.5 17.625 9.0625 C16.29227956 13.37424261 15.47803925 14.25637199 11.5625 16.5 C7.55523632 17.14251325 3.61407761 17.14917409 -0.4375 17.125 C-1.51773437 17.15722656 -2.59796875 17.18945312 -3.7109375 17.22265625 C-11.34645215 17.23208281 -11.34645215 17.23208281 -14.30078125 15.24975586 C-16.86755197 12.36530207 -17.4375 10.6834475 -17.4375 6.8125 C-14.82208565 -1.85106004 -7.7956628 -0.01614845 0 0 Z " fill="#2F76AB" transform="translate(378.4375,402.5)"/>
<path d="M0 0 C-2.06309376 -0.11478413 -4.12548354 -0.24226198 -6.1875 -0.375 C-7.33605469 -0.44460937 -8.48460937 -0.51421875 -9.66796875 -0.5859375 C-13 -1 -13 -1 -15.3359375 -1.97265625 C-19.27644027 -3.4922343 -23.25184955 -3.69194588 -27.4375 -4.0625 C-36.45561974 -4.90642304 -36.45561974 -4.90642304 -39.86328125 -5.4921875 C-54.15742482 -7.80630788 -68.92309183 -8.1864791 -83.375 -8.1875 C-85.03160645 -8.18858765 -85.03160645 -8.18858765 -86.72167969 -8.18969727 C-91.01540505 -8.15973948 -94.84206266 -8.09643118 -99 -7 C-101.16667492 -6.98004378 -103.33393413 -7.00738992 -105.5 -7.0625 C-154.49528007 -7.45966144 -208.95589455 10.70950635 -250.05859375 36.98828125 C-250.69925781 37.32214844 -251.33992188 37.65601563 -252 38 C-252.66 37.67 -253.32 37.34 -254 37 C-191.33858413 -1.29262064 -71.86138398 -38.28176852 0 0 Z " fill="#BEC8CA" transform="translate(594,95)"/>
<path d="M0 0 C6.53556988 0.54716399 12.1225149 2.20689878 18.25 4.5 C19.21091553 4.85602295 20.17183105 5.2120459 21.16186523 5.57885742 C52.83769744 17.50831117 82.43099568 34.02089114 109 55 C109.65661621 55.51385254 110.31323242 56.02770508 110.98974609 56.55712891 C127.95905998 69.87933114 143.91696953 84.64007238 158 101 C158.54817383 101.63615234 159.09634766 102.27230469 159.66113281 102.92773438 C168.92751331 113.76723165 177.17392753 125.08619045 185 137 C185.44778809 137.67788574 185.89557617 138.35577148 186.35693359 139.05419922 C197.13062295 155.4017622 197.13062295 155.4017622 199 160 C198.67 160.66 198.34 161.32 198 162 C197.03513672 160.38158203 197.03513672 160.38158203 196.05078125 158.73046875 C186.04503434 142.07675936 175.33465964 126.02502903 163 111 C162.5757373 110.47809082 162.15147461 109.95618164 161.71435547 109.41845703 C138.98899103 81.54674624 112.09352796 58.57505551 82 39 C80.41541587 37.91849703 78.83188721 36.83544388 77.25 35.75 C68.00685799 29.61077024 57.89575064 24.88473216 47.96533203 19.97607422 C46.60452638 19.30023559 45.2462852 18.61921791 43.89013672 17.93408203 C38.68912709 15.30754189 33.44259995 13.08226119 28 11 C27.4009082 10.77022461 26.80181641 10.54044922 26.18457031 10.30371094 C17.52286849 6.99023198 8.82987421 3.84295192 0 1 C0 0.67 0 0.34 0 0 Z " fill="#BAC5CC" transform="translate(607,99)"/>
<path d="M0 0 C23.265 0.495 23.265 0.495 47 1 C47 1.33 47 1.66 47 2 C41.62374766 2.84888195 37.34629602 3.0024305 32 2 C32.99 3.98 33.98 5.96 35 8 C30.64589022 8.0583721 26.29188207 8.09372173 21.9375 8.125 C20.70837891 8.14175781 19.47925781 8.15851562 18.21289062 8.17578125 C12.09443607 8.20876483 6.75520567 8.17209842 1 6 C0.67 4.02 0.34 2.04 0 0 Z " fill="#C5CCD2" transform="translate(481,753)"/>
<path d="M0 0 C6.53556988 0.54716399 12.1225149 2.20689878 18.25 4.5 C19.21091553 4.85602295 20.17183105 5.2120459 21.16186523 5.57885742 C42.82035582 13.73567427 63.51175709 24.05966797 83.0625 36.4375 C83.99690918 37.02877686 84.93131836 37.62005371 85.89404297 38.22924805 C90.0195627 40.89150108 93.60049593 43.42784415 97 47 C93.68121904 46.36684549 91.41677893 45.14548395 88.62109375 43.26953125 C87.78803711 42.71676514 86.95498047 42.16399902 86.09667969 41.59448242 C85.21915039 41.00642822 84.34162109 40.41837402 83.4375 39.8125 C76.44305175 35.2008238 69.49523841 30.76343195 62 27 C61.38141113 26.68724121 60.76282227 26.37448242 60.12548828 26.05224609 C56.081125 24.00848556 52.02756758 21.98405854 47.96533203 19.97607422 C46.60452638 19.30023559 45.2462852 18.61921791 43.89013672 17.93408203 C38.68912709 15.30754189 33.44259995 13.08226119 28 11 C27.4009082 10.77022461 26.80181641 10.54044922 26.18457031 10.30371094 C17.52286849 6.99023198 8.82987421 3.84295192 0 1 C0 0.67 0 0.34 0 0 Z " fill="#A2B1B9" transform="translate(607,99)"/>
<path d="M0 0 C0.33 0 0.66 0 1 0 C1.25844168 6.49904825 0.32361131 12.23789012 -1.125 18.5625 C-1.35018311 19.56337646 -1.57536621 20.56425293 -1.80737305 21.59545898 C-2.52302588 24.73407628 -3.25757736 27.86761353 -4 31 C-4.22993652 31.97582031 -4.45987305 32.95164062 -4.69677734 33.95703125 C-9.04912598 52.1672826 -14.6364234 70.1924278 -23 87 C-24.1401775 83.57946751 -23.90668041 83.10694692 -22.59375 79.921875 C-22.26552246 79.10307861 -21.93729492 78.28428223 -21.59912109 77.44067383 C-21.23641113 76.55275146 -20.87370117 75.6648291 -20.5 74.75 C-11.59489138 52.09970944 -5.12149779 28.4583371 -1.44067383 4.38745117 C-1 2 -1 2 0 0 Z " fill="#A9B5BE" transform="translate(843,473)"/>
<path d="M0 0 C1.05058594 0.00902344 2.10117187 0.01804687 3.18359375 0.02734375 C3.96863281 0.03894531 4.75367188 0.05054688 5.5625 0.0625 C5.5625 0.3925 5.5625 0.7225 5.5625 1.0625 C1.67123141 1.6191692 -2.22079284 2.17021263 -6.11352539 2.71655273 C-8.0715251 2.99246458 -10.02893649 3.27254124 -11.98632812 3.55273438 C-26.98656403 5.65200403 -41.6335657 6.19828007 -56.75 6.125 C-58.56966022 6.11997197 -60.38932179 6.11541138 -62.20898438 6.11132812 C-66.6185237 6.10043265 -71.02799645 6.08324084 -75.4375 6.0625 C-75.4375 5.7325 -75.4375 5.4025 -75.4375 5.0625 C-72.1375 5.0625 -68.8375 5.0625 -65.4375 5.0625 C-65.1075 4.4025 -64.7775 3.7425 -64.4375 3.0625 C-63.23927612 3.07821045 -63.23927612 3.07821045 -62.0168457 3.09423828 C-44.47659436 3.29303031 -27.15926167 3.16903911 -9.7734375 0.5 C-6.46964401 0.06671561 -3.32919012 -0.03740663 0 0 Z " fill="#B0BDC5" transform="translate(566.4375,756.9375)"/>
<path d="M0 0 C20.73123263 -0.92366878 49.43441438 -0.00557918 68 10 C65.93690624 9.88521587 63.87451646 9.75773802 61.8125 9.625 C60.08966797 9.52058594 60.08966797 9.52058594 58.33203125 9.4140625 C55 9 55 9 52.6640625 8.02734375 C48.72355973 6.5077657 44.74815045 6.30805412 40.5625 5.9375 C38.8969763 5.78163893 37.23160646 5.62412377 35.56640625 5.46484375 C34.77041016 5.3887085 33.97441406 5.31257324 33.15429688 5.23413086 C31.45080059 5.0489934 29.75557427 4.78790081 28.06640625 4.5 C22.59419931 3.60771658 17.04852157 3.2730856 11.5234375 2.83789062 C10.6159375 2.75861328 9.7084375 2.67933594 8.7734375 2.59765625 C7.95278809 2.53070557 7.13213867 2.46375488 6.28662109 2.39477539 C3.87220444 1.97793664 2.12279229 1.20088522 0 0 Z " fill="#A6B4BB" transform="translate(526,85)"/>
<path d="M0 0 C4.92759804 0.44293016 7.94070728 2.95782541 11.625 6 C12.55131226 6.74866333 12.55131226 6.74866333 13.49633789 7.51245117 C14.75115755 8.52839647 16.00290541 9.54814823 17.25146484 10.57177734 C18.76615375 11.80899183 20.29764225 13.02558484 21.83203125 14.23828125 C27.41464395 18.6826101 32.70802665 23.40004961 37.9375 28.25 C38.57679443 28.84079346 39.21608887 29.43158691 39.87475586 30.0402832 C43.21679904 33.17391982 46.24110882 36.32147842 49 40 C46.11084945 38.68610661 43.99483345 37.25929135 41.71484375 35.05859375 C41.10785645 34.47972412 40.50086914 33.90085449 39.87548828 33.30444336 C38.91618408 32.3803064 38.91618408 32.3803064 37.9375 31.4375 C28.35968121 22.36953146 18.17155795 14.2932256 7.66064453 6.33959961 C6.95665527 5.8060083 6.25266602 5.27241699 5.52734375 4.72265625 C4.89562256 4.24578369 4.26390137 3.76891113 3.61303711 3.27758789 C2 2 2 2 0 0 Z " fill="#B2BFC5" transform="translate(702,146)"/>
<path d="M0 0 C6.93 0.495 6.93 0.495 14 1 C14 1.99 14 2.98 14 4 C14.639375 4.103125 15.27875 4.20625 15.9375 4.3125 C16.618125 4.539375 17.29875 4.76625 18 5 C18.33 5.99 18.66 6.98 19 8 C12.59370576 8.20852314 7.07027358 8.1583195 1 6 C0.67 4.02 0.34 2.04 0 0 Z " fill="#BBC5CC" transform="translate(481,753)"/>
<path d="M0 0 C0.80851913 0.00141495 1.61703827 0.0028299 2.45005798 0.00428772 C4.99669317 0.00982211 7.54323578 0.02236165 10.08984375 0.03515625 C11.83137893 0.04017975 13.5729155 0.04474116 15.31445312 0.04882812 C19.55211823 0.05976991 23.78971538 0.07698799 28.02734375 0.09765625 C27.06828125 0.28328125 27.06828125 0.28328125 26.08984375 0.47265625 C25.40921875 0.67890625 24.72859375 0.88515625 24.02734375 1.09765625 C23.69734375 1.75765625 23.36734375 2.41765625 23.02734375 3.09765625 C9.33229027 3.25153326 -4.2954062 2.78535965 -17.97265625 2.09765625 C-17.97265625 1.76765625 -17.97265625 1.43765625 -17.97265625 1.09765625 C-11.93681957 0.3408854 -6.07881521 -0.04112648 0 0 Z " fill="#B6C2C9" transform="translate(501.97265625,83.90234375)"/>
<path d="M0 0 C0.33 0 0.66 0 1 0 C1.30966622 6.83710416 0.15322145 12.91301958 -1.375 19.5625 C-1.59671875 20.56474609 -1.8184375 21.56699219 -2.046875 22.59960938 C-3.20793006 27.78679358 -4.47192144 32.908785 -6 38 C-6.33 38 -6.66 38 -7 38 C-6.39249758 30.0480654 -5.03757447 22.31966445 -3.5 14.5 C-3.27441406 13.32179688 -3.04882812 12.14359375 -2.81640625 10.9296875 C-1.13375235 2.2675047 -1.13375235 2.2675047 0 0 Z " fill="#A0AEB7" transform="translate(843,473)"/>
<path d="M0 0 C0.66 0 1.32 0 2 0 C0.31026801 5.86382669 -2.55760409 10.69175048 -5.63476562 15.90234375 C-7.61003661 19.31387667 -9.29024386 22.59482599 -10.59765625 26.3203125 C-11.86846989 29.65487084 -12.49496899 30.74742069 -15 33 C-14.3862031 29.20250622 -13.26950431 26.11650581 -11.6015625 22.65625 C-11.12203125 21.65722656 -10.6425 20.65820312 -10.1484375 19.62890625 C-9.39433594 18.08009766 -9.39433594 18.08009766 -8.625 16.5 C-8.13 15.46746094 -7.635 14.43492187 -7.125 13.37109375 C-2.37319142 3.52443158 -2.37319142 3.52443158 0 0 Z " fill="#B7C1C8" transform="translate(218,259)"/>
<path d="M0 0 C7.79987775 4.01078985 14.86330771 8.93702974 22 14 C21.01 14.33 20.02 14.66 19 15 C16.42218519 13.52146024 14.05095464 12.01019992 11.625 10.3125 C10.965 9.86455078 10.305 9.41660156 9.625 8.95507812 C5.95822822 6.44604206 2.43076586 3.82806375 -1 1 C-0.67 0.67 -0.34 0.34 0 0 Z " fill="#AAB8C0" transform="translate(682,131)"/>
<path d="M0 0 C1.36995117 0.07831055 1.36995117 0.07831055 2.76757812 0.15820312 C4.99137081 0.28627495 7.21451936 0.42113959 9.4375 0.5625 C6.2883365 2.4043514 3.97089033 2.81883419 0.33984375 2.828125 C-1.10938477 2.83199219 -1.10938477 2.83199219 -2.58789062 2.8359375 C-3.59013672 2.82820313 -4.59238281 2.82046875 -5.625 2.8125 C-6.63111328 2.82023437 -7.63722656 2.82796875 -8.67382812 2.8359375 C-10.12112305 2.83207031 -10.12112305 2.83207031 -11.59765625 2.828125 C-12.4781665 2.82586914 -13.35867676 2.82361328 -14.26586914 2.82128906 C-16.5625 2.5625 -16.5625 2.5625 -19.5625 0.5625 C-12.91454039 -0.35049547 -6.68781102 -0.42688155 0 0 Z " fill="#C4CDD2" transform="translate(489.5625,85.4375)"/>
<path d="M0 0 C0.99 0.33 1.98 0.66 3 1 C1.0095043 3.67389923 -0.99286265 6.33857523 -3 9 C-3.7425 9.99 -4.485 10.98 -5.25 12 C-5.8275 12.66 -6.405 13.32 -7 14 C-7.66 14 -8.32 14 -9 14 C-9.33 14.99 -9.66 15.98 -10 17 C-10.33 16.34 -10.66 15.68 -11 15 C-10.50628906 14.45730469 -10.01257813 13.91460938 -9.50390625 13.35546875 C-8.86324219 12.64003906 -8.22257813 11.92460938 -7.5625 11.1875 C-6.92441406 10.47980469 -6.28632812 9.77210938 -5.62890625 9.04296875 C-3.80913988 7.00103848 -3.80913988 7.00103848 -3 4 C-2.34 3.67 -1.68 3.34 -1 3 C-0.67 2.01 -0.34 1.02 0 0 Z " fill="#9DB4C0" transform="translate(773,620)"/>
<path d="M0 0 C0.33 0.99 0.66 1.98 1 3 C-2.63 3 -6.26 3 -10 3 C-9.67 2.01 -9.34 1.02 -9 0 C-8.34 0 -7.68 0 -7 0 C-4.3333581 -1.33332095 -2.83319697 -0.67102033 0 0 Z " fill="#B0BDC7" transform="translate(499,758)"/>
<path d="M0 0 C2.48046875 0.14453125 2.48046875 0.14453125 5.1875 0.8125 C6.53908203 1.13154297 6.53908203 1.13154297 7.91796875 1.45703125 C8.60503906 1.63621094 9.29210937 1.81539062 10 2 C10 2.66 10 3.32 10 4 C5.71 3.67 1.42 3.34 -3 3 C-2.01 2.01 -1.02 1.02 0 0 Z " fill="#AAB7C1" transform="translate(468,757)"/>
<path d="M0 0 C-1.44253657 3.36591866 -3.33264727 5.51047079 -6 8 C-6.66 7.67 -7.32 7.34 -8 7 C-7.34 5.68 -6.68 4.36 -6 3 C-5.34 3 -4.68 3 -4 3 C-4 2.34 -4 1.68 -4 1 C-2 0 -2 0 0 0 Z " fill="#C7D6DF" transform="translate(301,190)"/>
<path d="M0 0 C0.33 0.99 0.66 1.98 1 3 C0.0479279 4.00596297 -0.91187346 5.00461563 -1.875 6 C-2.40867187 6.556875 -2.94234375 7.11375 -3.4921875 7.6875 C-5 9 -5 9 -7 9 C-5.76448756 5.29346269 -4.03334922 4.35084565 -1 2 C-0.67 1.34 -0.34 0.68 0 0 Z " fill="#A2BAC4" transform="translate(756,642)"/>
</svg>